<svg xmlns="http://www.w3.org/2000/svg" xmlns:xlink="http://www.w3.org/1999/xlink" width="220" zoomAndPan="magnify" viewBox="0 0 165 82.499998" height="110" preserveAspectRatio="xMidYMid meet" version="1.0"><defs><clipPath id="8ecbee827c"><path d="M 0.496094 0 L 164.503906 0 L 164.503906 82.003906 L 0.496094 82.003906 Z M 0.496094 0 " clip-rule="nonzero"/></clipPath><clipPath id="bbd085c6a3"><path d="M 15 30.472656 L 31 30.472656 L 31 50 L 15 50 Z M 15 30.472656 " clip-rule="nonzero"/></clipPath><clipPath id="fe0c6bc401"><path d="M 8.699219 30.472656 L 25 30.472656 L 25 50 L 8.699219 50 Z M 8.699219 30.472656 " clip-rule="nonzero"/></clipPath></defs><g clip-path="url(#8ecbee827c)"><path fill="#ffffff" d="M 0.496094 0 L 164.503906 0 L 164.503906 89.457031 L 0.496094 89.457031 Z M 0.496094 0 " fill-opacity="1" fill-rule="nonzero"/><path fill="#ffffff" d="M 0.496094 0 L 164.503906 0 L 164.503906 82.003906 L 0.496094 82.003906 Z M 0.496094 0 " fill-opacity="1" fill-rule="nonzero"/><path fill="#ffffff" d="M 0.496094 0 L 164.503906 0 L 164.503906 82.003906 L 0.496094 82.003906 Z M 0.496094 0 " fill-opacity="1" fill-rule="nonzero"/></g><g clip-path="url(#bbd085c6a3)"><path stroke-linecap="round" transform="matrix(0.212608, 0, 0, 0.210843, 8.724941, 30.473452)" fill="none" stroke-linejoin="round" d="M 68.281677 44.997794 L 36.09219 24.470114 L 36.09219 3.923906 L 100.471164 44.997794 L 36.09219 86.053155 L 36.09219 65.525475 Z M 68.281677 44.997794 " stroke="#ff206e" stroke-width="7.81" stroke-opacity="1" stroke-miterlimit="2"/></g><g clip-path="url(#fe0c6bc401)"><path stroke-linecap="round" transform="matrix(0.212608, 0, 0, 0.210843, 8.724941, 30.473452)" fill="none" stroke-linejoin="round" d="M 68.281677 44.997794 L 3.902702 86.053155 L 3.902702 3.923906 Z M 68.281677 44.997794 " stroke="#ff206e" stroke-width="7.81" stroke-opacity="1" stroke-miterlimit="2"/></g><path fill="#ff206e" d="M 48.304688 44.96875 L 40.738281 44.96875 L 39.296875 48.433594 L 35.433594 48.433594 L 42.695312 32.273438 L 46.417969 32.273438 L 53.707031 48.433594 L 49.75 48.433594 Z M 47.117188 42.128906 L 44.535156 35.941406 L 41.949219 42.128906 Z M 47.117188 42.128906 " fill-opacity="1" fill-rule="nonzero"/><path fill="#ff206e" d="M 62.273438 48.433594 L 59.523438 44.621094 L 56.683594 48.433594 L 52.726562 48.433594 L 57.546875 42.175781 L 52.890625 36.011719 L 56.964844 36.011719 L 59.617188 39.636719 L 62.34375 36.011719 L 66.207031 36.011719 L 61.550781 42.082031 L 66.390625 48.433594 Z M 62.273438 48.433594 " fill-opacity="1" fill-rule="nonzero"/><path fill="#ff206e" d="M 80.035156 42.269531 C 80.035156 42.3125 80.011719 42.636719 79.964844 43.238281 L 70.488281 43.238281 C 70.660156 44.007812 71.0625 44.613281 71.699219 45.0625 C 72.335938 45.507812 73.128906 45.730469 74.074219 45.730469 C 74.726562 45.730469 75.304688 45.636719 75.808594 45.441406 C 76.3125 45.25 76.78125 44.945312 77.21875 44.53125 L 79.148438 46.609375 C 77.96875 47.945312 76.246094 48.617188 73.980469 48.617188 C 72.570312 48.617188 71.320312 48.34375 70.234375 47.796875 C 69.148438 47.25 68.308594 46.492188 67.71875 45.523438 C 67.128906 44.554688 66.835938 43.453125 66.835938 42.222656 C 66.835938 41.007812 67.125 39.910156 67.707031 38.933594 C 68.289062 37.953125 69.089844 37.191406 70.105469 36.648438 C 71.121094 36.101562 72.257812 35.828125 73.515625 35.828125 C 74.742188 35.828125 75.851562 36.089844 76.84375 36.613281 C 77.835938 37.136719 78.617188 37.886719 79.183594 38.863281 C 79.75 39.839844 80.035156 40.976562 80.035156 42.269531 Z M 73.539062 38.550781 C 72.714844 38.550781 72.027344 38.78125 71.46875 39.242188 C 70.910156 39.707031 70.566406 40.335938 70.441406 41.136719 L 76.613281 41.136719 C 76.488281 40.351562 76.144531 39.726562 75.585938 39.253906 C 75.027344 38.785156 74.347656 38.550781 73.539062 38.550781 Z M 73.539062 38.550781 " fill-opacity="1" fill-rule="nonzero"/><path fill="#ff206e" d="M 82.453125 31.300781 L 86.085938 31.300781 L 86.085938 48.433594 L 82.453125 48.433594 Z M 82.453125 31.300781 " fill-opacity="1" fill-rule="nonzero"/><path fill="#ff206e" d="M 101.730469 42.269531 C 101.730469 42.3125 101.707031 42.636719 101.660156 43.238281 L 92.183594 43.238281 C 92.355469 44.007812 92.757812 44.613281 93.394531 45.0625 C 94.03125 45.507812 94.824219 45.730469 95.769531 45.730469 C 96.421875 45.730469 97 45.636719 97.503906 45.441406 C 98.007812 45.25 98.476562 44.945312 98.914062 44.53125 L 100.84375 46.609375 C 99.664062 47.945312 97.941406 48.617188 95.675781 48.617188 C 94.265625 48.617188 93.015625 48.34375 91.929688 47.796875 C 90.84375 47.25 90.003906 46.492188 89.414062 45.523438 C 88.824219 44.554688 88.53125 43.453125 88.53125 42.222656 C 88.53125 41.007812 88.820312 39.910156 89.402344 38.933594 C 89.984375 37.953125 90.785156 37.191406 91.800781 36.648438 C 92.816406 36.101562 93.953125 35.828125 95.210938 35.828125 C 96.4375 35.828125 97.546875 36.089844 98.539062 36.613281 C 99.535156 37.136719 100.3125 37.886719 100.878906 38.863281 C 101.445312 39.839844 101.730469 40.976562 101.730469 42.269531 Z M 95.234375 38.550781 C 94.414062 38.550781 93.722656 38.78125 93.164062 39.242188 C 92.605469 39.707031 92.261719 40.335938 92.136719 41.136719 L 98.308594 41.136719 C 98.183594 40.351562 97.84375 39.726562 97.285156 39.253906 C 96.722656 38.785156 96.042969 38.550781 95.234375 38.550781 Z M 95.234375 38.550781 " fill-opacity="1" fill-rule="nonzero"/><path fill="#ff206e" d="M 107.617188 37.652344 C 108.054688 37.050781 108.640625 36.597656 109.375 36.289062 C 110.113281 35.980469 110.964844 35.828125 111.925781 35.828125 L 111.925781 39.152344 C 111.523438 39.121094 111.25 39.105469 111.109375 39.105469 C 110.070312 39.105469 109.257812 39.394531 108.667969 39.972656 C 108.078125 40.546875 107.78125 41.414062 107.78125 42.566406 L 107.78125 48.433594 L 104.152344 48.433594 L 104.152344 36.011719 L 107.617188 36.011719 Z M 107.617188 37.652344 " fill-opacity="1" fill-rule="nonzero"/><path fill="#ff206e" d="M 119.070312 35.828125 C 121.011719 35.828125 122.5 36.285156 123.542969 37.199219 C 124.582031 38.117188 125.101562 39.496094 125.101562 41.34375 L 125.101562 48.433594 L 121.703125 48.433594 L 121.703125 46.886719 C 121.019531 48.039062 119.746094 48.617188 117.886719 48.617188 C 116.921875 48.617188 116.089844 48.453125 115.382812 48.132812 C 114.675781 47.808594 114.136719 47.363281 113.765625 46.792969 C 113.390625 46.222656 113.207031 45.578125 113.207031 44.855469 C 113.207031 43.699219 113.644531 42.792969 114.519531 42.128906 C 115.398438 41.46875 116.753906 41.136719 118.582031 41.136719 L 121.46875 41.136719 C 121.46875 40.351562 121.230469 39.746094 120.75 39.324219 C 120.265625 38.902344 119.546875 38.691406 118.582031 38.691406 C 117.914062 38.691406 117.261719 38.792969 116.617188 39 C 115.972656 39.210938 115.425781 39.488281 114.976562 39.84375 L 113.671875 37.328125 C 114.355469 36.851562 115.171875 36.480469 116.128906 36.21875 C 117.082031 35.957031 118.0625 35.828125 119.070312 35.828125 Z M 118.792969 46.191406 C 119.414062 46.191406 119.964844 46.050781 120.445312 45.765625 C 120.925781 45.480469 121.269531 45.0625 121.46875 44.507812 L 121.46875 43.238281 L 118.980469 43.238281 C 117.488281 43.238281 116.746094 43.722656 116.746094 44.691406 C 116.746094 45.152344 116.925781 45.519531 117.292969 45.789062 C 117.65625 46.058594 118.15625 46.191406 118.792969 46.191406 Z M 118.792969 46.191406 " fill-opacity="1" fill-rule="nonzero"/><path fill="#ff206e" d="M 135.996094 35.828125 C 137.546875 35.828125 138.800781 36.289062 139.753906 37.210938 C 140.710938 38.136719 141.1875 39.503906 141.1875 41.320312 L 141.1875 48.433594 L 137.554688 48.433594 L 137.554688 41.875 C 137.554688 40.890625 137.339844 40.15625 136.902344 39.671875 C 136.46875 39.1875 135.839844 38.945312 135.019531 38.945312 C 134.101562 38.945312 133.371094 39.226562 132.828125 39.785156 C 132.285156 40.347656 132.015625 41.183594 132.015625 42.292969 L 132.015625 48.433594 L 128.382812 48.433594 L 128.382812 36.011719 L 131.851562 36.011719 L 131.851562 37.464844 C 132.332031 36.941406 132.929688 36.539062 133.644531 36.253906 C 134.359375 35.96875 135.140625 35.828125 135.996094 35.828125 Z M 135.996094 35.828125 " fill-opacity="1" fill-rule="nonzero"/><path fill="#ff206e" d="M 152.546875 47.832031 C 152.191406 48.09375 151.75 48.289062 151.230469 48.421875 C 150.710938 48.550781 150.164062 48.617188 149.589844 48.617188 C 148.101562 48.617188 146.949219 48.238281 146.132812 47.484375 C 145.320312 46.730469 144.910156 45.625 144.910156 44.160156 L 144.910156 39.058594 L 142.980469 39.058594 L 142.980469 36.289062 L 144.910156 36.289062 L 144.910156 33.265625 L 148.542969 33.265625 L 148.542969 36.289062 L 151.664062 36.289062 L 151.664062 39.058594 L 148.542969 39.058594 L 148.542969 44.113281 C 148.542969 44.636719 148.679688 45.042969 148.949219 45.328125 C 149.222656 45.613281 149.605469 45.753906 150.101562 45.753906 C 150.675781 45.753906 151.164062 45.601562 151.570312 45.292969 Z M 152.546875 47.832031 " fill-opacity="1" fill-rule="nonzero"/></svg>