<svg xmlns="http://www.w3.org/2000/svg" xmlns:xlink="http://www.w3.org/1999/xlink" width="220" zoomAndPan="magnify" viewBox="0 0 165 82.499998" height="110" preserveAspectRatio="xMidYMid meet" version="1.0"><defs><g/><clipPath id="704daaf050"><path d="M 0.496094 0 L 164.503906 0 L 164.503906 82.003906 L 0.496094 82.003906 Z M 0.496094 0 " clip-rule="nonzero"/></clipPath><clipPath id="6a3885383b"><path d="M 11.734375 18.90625 L 48 18.90625 L 48 55 L 11.734375 55 Z M 11.734375 18.90625 " clip-rule="nonzero"/></clipPath><clipPath id="9b7ccad530"><path d="M 46.945312 24.699219 L 41.640625 29.976562 C 41.472656 30.144531 41.253906 30.246094 41.023438 30.277344 C 40.789062 30.304688 40.550781 30.253906 40.351562 30.128906 C 38.261719 28.878906 35.855469 28.253906 33.417969 28.332031 C 30.980469 28.410156 28.621094 29.1875 26.621094 30.574219 C 25.386719 31.425781 24.320312 32.488281 23.464844 33.714844 C 22.074219 35.707031 21.289062 38.054688 21.210938 40.480469 C 21.132812 42.902344 21.757812 45.300781 23.015625 47.378906 C 23.136719 47.578125 23.1875 47.8125 23.160156 48.042969 C 23.132812 48.277344 23.027344 48.492188 22.859375 48.65625 L 17.554688 53.9375 C 17.445312 54.042969 17.316406 54.125 17.175781 54.179688 C 17.035156 54.230469 16.882812 54.253906 16.730469 54.242188 C 16.578125 54.230469 16.433594 54.1875 16.300781 54.117188 C 16.167969 54.042969 16.050781 53.941406 15.960938 53.820312 C 13.089844 49.894531 11.605469 45.132812 11.742188 40.28125 C 11.875 35.429688 13.625 30.753906 16.707031 26.992188 C 17.648438 25.84375 18.707031 24.789062 19.863281 23.855469 C 23.644531 20.785156 28.339844 19.046875 33.21875 18.914062 C 38.097656 18.78125 42.882812 20.253906 46.828125 23.109375 C 46.949219 23.199219 47.050781 23.316406 47.125 23.445312 C 47.199219 23.578125 47.242188 23.726562 47.253906 23.875 C 47.265625 24.027344 47.246094 24.179688 47.191406 24.320312 C 47.136719 24.460938 47.054688 24.589844 46.945312 24.699219 Z M 46.945312 24.699219 " clip-rule="nonzero"/></clipPath><linearGradient x1="71.539039" gradientTransform="matrix(0.442104, 0, 0, 0.439834, 11.365419, 18.905425)" y1="-9.665198" x2="-8.828579" gradientUnits="userSpaceOnUse" y2="70.707975" id="0759eab74b"><stop stop-opacity="1" stop-color="rgb(8.999634%, 79.998779%, 98.799133%)" offset="0"/><stop stop-opacity="1" stop-color="rgb(9.046936%, 79.893494%, 98.800659%)" offset="0.03125"/><stop stop-opacity="1" stop-color="rgb(9.263611%, 79.412842%, 98.81134%)" offset="0.0351563"/><stop stop-opacity="1" stop-color="rgb(9.434509%, 79.03595%, 98.81897%)" offset="0.0390625"/><stop stop-opacity="1" stop-color="rgb(9.605408%, 78.657532%, 98.825073%)" offset="0.0429688"/><stop stop-opacity="1" stop-color="rgb(9.776306%, 78.28064%, 98.832703%)" offset="0.046875"/><stop stop-opacity="1" stop-color="rgb(9.947205%, 77.903748%, 98.840332%)" offset="0.0507812"/><stop stop-opacity="1" stop-color="rgb(10.118103%, 77.526855%, 98.847961%)" offset="0.0546875"/><stop stop-opacity="1" stop-color="rgb(10.287476%, 77.149963%, 98.855591%)" offset="0.0585938"/><stop stop-opacity="1" stop-color="rgb(10.458374%, 76.773071%, 98.86322%)" offset="0.0625"/><stop stop-opacity="1" stop-color="rgb(10.629272%, 76.394653%, 98.87085%)" offset="0.0664062"/><stop stop-opacity="1" stop-color="rgb(10.800171%, 76.017761%, 98.878479%)" offset="0.0703125"/><stop stop-opacity="1" stop-color="rgb(10.969543%, 75.640869%, 98.884583%)" offset="0.0742188"/><stop stop-opacity="1" stop-color="rgb(11.140442%, 75.263977%, 98.892212%)" offset="0.078125"/><stop stop-opacity="1" stop-color="rgb(11.31134%, 74.887085%, 98.899841%)" offset="0.0820312"/><stop stop-opacity="1" stop-color="rgb(11.482239%, 74.510193%, 98.907471%)" offset="0.0859375"/><stop stop-opacity="1" stop-color="rgb(11.653137%, 74.131775%, 98.9151%)" offset="0.0898438"/><stop stop-opacity="1" stop-color="rgb(11.824036%, 73.754883%, 98.922729%)" offset="0.09375"/><stop stop-opacity="1" stop-color="rgb(11.993408%, 73.377991%, 98.930359%)" offset="0.0976562"/><stop stop-opacity="1" stop-color="rgb(12.164307%, 73.001099%, 98.937988%)" offset="0.101562"/><stop stop-opacity="1" stop-color="rgb(12.335205%, 72.624207%, 98.944092%)" offset="0.105469"/><stop stop-opacity="1" stop-color="rgb(12.506104%, 72.247314%, 98.951721%)" offset="0.109375"/><stop stop-opacity="1" stop-color="rgb(12.675476%, 71.868896%, 98.959351%)" offset="0.113281"/><stop stop-opacity="1" stop-color="rgb(12.846375%, 71.492004%, 98.96698%)" offset="0.117188"/><stop stop-opacity="1" stop-color="rgb(13.017273%, 71.115112%, 98.974609%)" offset="0.121094"/><stop stop-opacity="1" stop-color="rgb(13.188171%, 70.73822%, 98.982239%)" offset="0.125"/><stop stop-opacity="1" stop-color="rgb(13.357544%, 70.361328%, 98.989868%)" offset="0.128906"/><stop stop-opacity="1" stop-color="rgb(13.528442%, 69.984436%, 98.997498%)" offset="0.132813"/><stop stop-opacity="1" stop-color="rgb(13.699341%, 69.607544%, 99.003601%)" offset="0.136719"/><stop stop-opacity="1" stop-color="rgb(13.870239%, 69.230652%, 99.01123%)" offset="0.140625"/><stop stop-opacity="1" stop-color="rgb(14.041138%, 68.852234%, 99.01886%)" offset="0.144531"/><stop stop-opacity="1" stop-color="rgb(14.212036%, 68.475342%, 99.026489%)" offset="0.148438"/><stop stop-opacity="1" stop-color="rgb(14.381409%, 68.09845%, 99.034119%)" offset="0.152344"/><stop stop-opacity="1" stop-color="rgb(14.552307%, 67.721558%, 99.041748%)" offset="0.15625"/><stop stop-opacity="1" stop-color="rgb(14.723206%, 67.344666%, 99.049377%)" offset="0.160156"/><stop stop-opacity="1" stop-color="rgb(14.894104%, 66.967773%, 99.057007%)" offset="0.164063"/><stop stop-opacity="1" stop-color="rgb(15.063477%, 66.589355%, 99.06311%)" offset="0.167969"/><stop stop-opacity="1" stop-color="rgb(15.234375%, 66.212463%, 99.07074%)" offset="0.171875"/><stop stop-opacity="1" stop-color="rgb(15.405273%, 65.835571%, 99.078369%)" offset="0.175781"/><stop stop-opacity="1" stop-color="rgb(15.576172%, 65.458679%, 99.085999%)" offset="0.179688"/><stop stop-opacity="1" stop-color="rgb(15.745544%, 65.081787%, 99.093628%)" offset="0.183594"/><stop stop-opacity="1" stop-color="rgb(15.916443%, 64.704895%, 99.101257%)" offset="0.1875"/><stop stop-opacity="1" stop-color="rgb(16.087341%, 64.326477%, 99.108887%)" offset="0.191406"/><stop stop-opacity="1" stop-color="rgb(16.25824%, 63.949585%, 99.116516%)" offset="0.195313"/><stop stop-opacity="1" stop-color="rgb(16.429138%, 63.572693%, 99.12262%)" offset="0.199219"/><stop stop-opacity="1" stop-color="rgb(16.600037%, 63.195801%, 99.130249%)" offset="0.203125"/><stop stop-opacity="1" stop-color="rgb(16.769409%, 62.818909%, 99.137878%)" offset="0.207031"/><stop stop-opacity="1" stop-color="rgb(16.940308%, 62.442017%, 99.145508%)" offset="0.210938"/><stop stop-opacity="1" stop-color="rgb(17.111206%, 62.063599%, 99.153137%)" offset="0.214844"/><stop stop-opacity="1" stop-color="rgb(17.282104%, 61.686707%, 99.160767%)" offset="0.21875"/><stop stop-opacity="1" stop-color="rgb(17.451477%, 61.309814%, 99.168396%)" offset="0.222656"/><stop stop-opacity="1" stop-color="rgb(17.622375%, 60.932922%, 99.176025%)" offset="0.226563"/><stop stop-opacity="1" stop-color="rgb(17.793274%, 60.55603%, 99.182129%)" offset="0.230469"/><stop stop-opacity="1" stop-color="rgb(17.964172%, 60.179138%, 99.189758%)" offset="0.234375"/><stop stop-opacity="1" stop-color="rgb(18.135071%, 59.80072%, 99.197388%)" offset="0.238281"/><stop stop-opacity="1" stop-color="rgb(18.305969%, 59.423828%, 99.205017%)" offset="0.242188"/><stop stop-opacity="1" stop-color="rgb(18.475342%, 59.046936%, 99.212646%)" offset="0.246094"/><stop stop-opacity="1" stop-color="rgb(18.64624%, 58.670044%, 99.220276%)" offset="0.25"/><stop stop-opacity="1" stop-color="rgb(18.817139%, 58.293152%, 99.227905%)" offset="0.253906"/><stop stop-opacity="1" stop-color="rgb(18.988037%, 57.91626%, 99.235535%)" offset="0.257813"/><stop stop-opacity="1" stop-color="rgb(19.15741%, 57.537842%, 99.241638%)" offset="0.261719"/><stop stop-opacity="1" stop-color="rgb(19.328308%, 57.16095%, 99.249268%)" offset="0.265625"/><stop stop-opacity="1" stop-color="rgb(19.499207%, 56.784058%, 99.256897%)" offset="0.269531"/><stop stop-opacity="1" stop-color="rgb(19.670105%, 56.407166%, 99.264526%)" offset="0.273438"/><stop stop-opacity="1" stop-color="rgb(19.839478%, 56.030273%, 99.272156%)" offset="0.277344"/><stop stop-opacity="1" stop-color="rgb(20.010376%, 55.653381%, 99.279785%)" offset="0.28125"/><stop stop-opacity="1" stop-color="rgb(20.181274%, 55.274963%, 99.287415%)" offset="0.285156"/><stop stop-opacity="1" stop-color="rgb(20.352173%, 54.898071%, 99.295044%)" offset="0.289063"/><stop stop-opacity="1" stop-color="rgb(20.523071%, 54.521179%, 99.301147%)" offset="0.292969"/><stop stop-opacity="1" stop-color="rgb(20.69397%, 54.144287%, 99.308777%)" offset="0.296875"/><stop stop-opacity="1" stop-color="rgb(20.863342%, 53.767395%, 99.316406%)" offset="0.300781"/><stop stop-opacity="1" stop-color="rgb(21.034241%, 53.390503%, 99.324036%)" offset="0.304688"/><stop stop-opacity="1" stop-color="rgb(21.205139%, 53.013611%, 99.331665%)" offset="0.308594"/><stop stop-opacity="1" stop-color="rgb(21.376038%, 52.636719%, 99.339294%)" offset="0.3125"/><stop stop-opacity="1" stop-color="rgb(21.54541%, 52.258301%, 99.346924%)" offset="0.316406"/><stop stop-opacity="1" stop-color="rgb(21.716309%, 51.881409%, 99.354553%)" offset="0.320312"/><stop stop-opacity="1" stop-color="rgb(21.887207%, 51.504517%, 99.362183%)" offset="0.324219"/><stop stop-opacity="1" stop-color="rgb(22.058105%, 51.127625%, 99.369812%)" offset="0.328125"/><stop stop-opacity="1" stop-color="rgb(22.229004%, 50.750732%, 99.375916%)" offset="0.332031"/><stop stop-opacity="1" stop-color="rgb(22.399902%, 50.37384%, 99.383545%)" offset="0.335938"/><stop stop-opacity="1" stop-color="rgb(22.569275%, 49.995422%, 99.391174%)" offset="0.339844"/><stop stop-opacity="1" stop-color="rgb(22.740173%, 49.61853%, 99.398804%)" offset="0.34375"/><stop stop-opacity="1" stop-color="rgb(22.911072%, 49.241638%, 99.406433%)" offset="0.347656"/><stop stop-opacity="1" stop-color="rgb(23.08197%, 48.864746%, 99.414062%)" offset="0.351562"/><stop stop-opacity="1" stop-color="rgb(23.251343%, 48.487854%, 99.421692%)" offset="0.355469"/><stop stop-opacity="1" stop-color="rgb(23.422241%, 48.110962%, 99.429321%)" offset="0.359375"/><stop stop-opacity="1" stop-color="rgb(23.59314%, 47.732544%, 99.435425%)" offset="0.363281"/><stop stop-opacity="1" stop-color="rgb(23.764038%, 47.355652%, 99.443054%)" offset="0.367188"/><stop stop-opacity="1" stop-color="rgb(23.933411%, 46.97876%, 99.450684%)" offset="0.371094"/><stop stop-opacity="1" stop-color="rgb(24.104309%, 46.601868%, 99.458313%)" offset="0.375"/><stop stop-opacity="1" stop-color="rgb(24.275208%, 46.224976%, 99.465942%)" offset="0.378906"/><stop stop-opacity="1" stop-color="rgb(24.446106%, 45.848083%, 99.473572%)" offset="0.382812"/><stop stop-opacity="1" stop-color="rgb(24.617004%, 45.469666%, 99.481201%)" offset="0.386719"/><stop stop-opacity="1" stop-color="rgb(24.787903%, 45.092773%, 99.488831%)" offset="0.390625"/><stop stop-opacity="1" stop-color="rgb(24.957275%, 44.715881%, 99.494934%)" offset="0.394531"/><stop stop-opacity="1" stop-color="rgb(25.128174%, 44.338989%, 99.502563%)" offset="0.398438"/><stop stop-opacity="1" stop-color="rgb(25.299072%, 43.962097%, 99.510193%)" offset="0.402344"/><stop stop-opacity="1" stop-color="rgb(25.469971%, 43.585205%, 99.517822%)" offset="0.40625"/><stop stop-opacity="1" stop-color="rgb(25.639343%, 43.206787%, 99.525452%)" offset="0.410156"/><stop stop-opacity="1" stop-color="rgb(25.810242%, 42.829895%, 99.533081%)" offset="0.414062"/><stop stop-opacity="1" stop-color="rgb(25.98114%, 42.453003%, 99.54071%)" offset="0.417969"/><stop stop-opacity="1" stop-color="rgb(26.152039%, 42.076111%, 99.54834%)" offset="0.421875"/><stop stop-opacity="1" stop-color="rgb(26.321411%, 41.699219%, 99.554443%)" offset="0.425781"/><stop stop-opacity="1" stop-color="rgb(26.49231%, 41.322327%, 99.562073%)" offset="0.429688"/><stop stop-opacity="1" stop-color="rgb(26.663208%, 40.943909%, 99.569702%)" offset="0.433594"/><stop stop-opacity="1" stop-color="rgb(26.834106%, 40.567017%, 99.577332%)" offset="0.4375"/><stop stop-opacity="1" stop-color="rgb(27.005005%, 40.190125%, 99.584961%)" offset="0.441406"/><stop stop-opacity="1" stop-color="rgb(27.175903%, 39.813232%, 99.59259%)" offset="0.445312"/><stop stop-opacity="1" stop-color="rgb(27.345276%, 39.43634%, 99.60022%)" offset="0.449219"/><stop stop-opacity="1" stop-color="rgb(27.516174%, 39.059448%, 99.607849%)" offset="0.453125"/><stop stop-opacity="1" stop-color="rgb(27.687073%, 38.682556%, 99.613953%)" offset="0.457031"/><stop stop-opacity="1" stop-color="rgb(27.857971%, 38.305664%, 99.621582%)" offset="0.460938"/><stop stop-opacity="1" stop-color="rgb(28.027344%, 37.927246%, 99.629211%)" offset="0.464844"/><stop stop-opacity="1" stop-color="rgb(28.198242%, 37.550354%, 99.636841%)" offset="0.46875"/><stop stop-opacity="1" stop-color="rgb(28.369141%, 37.173462%, 99.64447%)" offset="0.472656"/><stop stop-opacity="1" stop-color="rgb(28.540039%, 36.79657%, 99.6521%)" offset="0.476562"/><stop stop-opacity="1" stop-color="rgb(28.710938%, 36.419678%, 99.659729%)" offset="0.480469"/><stop stop-opacity="1" stop-color="rgb(28.881836%, 36.042786%, 99.667358%)" offset="0.484375"/><stop stop-opacity="1" stop-color="rgb(29.051208%, 35.664368%, 99.673462%)" offset="0.488281"/><stop stop-opacity="1" stop-color="rgb(29.222107%, 35.287476%, 99.681091%)" offset="0.492188"/><stop stop-opacity="1" stop-color="rgb(29.393005%, 34.910583%, 99.688721%)" offset="0.496094"/><stop stop-opacity="1" stop-color="rgb(29.563904%, 34.533691%, 99.69635%)" offset="0.5"/><stop stop-opacity="1" stop-color="rgb(29.733276%, 34.156799%, 99.703979%)" offset="0.503906"/><stop stop-opacity="1" stop-color="rgb(29.904175%, 33.779907%, 99.711609%)" offset="0.507812"/><stop stop-opacity="1" stop-color="rgb(30.075073%, 33.401489%, 99.719238%)" offset="0.511719"/><stop stop-opacity="1" stop-color="rgb(30.245972%, 33.024597%, 99.726868%)" offset="0.515625"/><stop stop-opacity="1" stop-color="rgb(30.415344%, 32.647705%, 99.732971%)" offset="0.519531"/><stop stop-opacity="1" stop-color="rgb(30.586243%, 32.270813%, 99.740601%)" offset="0.523438"/><stop stop-opacity="1" stop-color="rgb(30.757141%, 31.893921%, 99.74823%)" offset="0.527344"/><stop stop-opacity="1" stop-color="rgb(30.92804%, 31.517029%, 99.755859%)" offset="0.53125"/><stop stop-opacity="1" stop-color="rgb(31.098938%, 31.138611%, 99.763489%)" offset="0.535156"/><stop stop-opacity="1" stop-color="rgb(31.269836%, 30.761719%, 99.771118%)" offset="0.539062"/><stop stop-opacity="1" stop-color="rgb(31.439209%, 30.384827%, 99.778748%)" offset="0.542969"/><stop stop-opacity="1" stop-color="rgb(31.610107%, 30.007935%, 99.786377%)" offset="0.546875"/><stop stop-opacity="1" stop-color="rgb(31.781006%, 29.631042%, 99.79248%)" offset="0.550781"/><stop stop-opacity="1" stop-color="rgb(31.951904%, 29.25415%, 99.80011%)" offset="0.554688"/><stop stop-opacity="1" stop-color="rgb(32.121277%, 28.875732%, 99.807739%)" offset="0.558594"/><stop stop-opacity="1" stop-color="rgb(32.292175%, 28.49884%, 99.815369%)" offset="0.5625"/><stop stop-opacity="1" stop-color="rgb(32.463074%, 28.121948%, 99.822998%)" offset="0.566406"/><stop stop-opacity="1" stop-color="rgb(32.633972%, 27.745056%, 99.830627%)" offset="0.570312"/><stop stop-opacity="1" stop-color="rgb(32.804871%, 27.368164%, 99.838257%)" offset="0.574219"/><stop stop-opacity="1" stop-color="rgb(32.975769%, 26.991272%, 99.845886%)" offset="0.578125"/><stop stop-opacity="1" stop-color="rgb(33.145142%, 26.612854%, 99.85199%)" offset="0.582031"/><stop stop-opacity="1" stop-color="rgb(33.31604%, 26.235962%, 99.859619%)" offset="0.585938"/><stop stop-opacity="1" stop-color="rgb(33.486938%, 25.85907%, 99.867249%)" offset="0.589844"/><stop stop-opacity="1" stop-color="rgb(33.657837%, 25.482178%, 99.874878%)" offset="0.59375"/><stop stop-opacity="1" stop-color="rgb(33.827209%, 25.105286%, 99.882507%)" offset="0.597656"/><stop stop-opacity="1" stop-color="rgb(33.998108%, 24.728394%, 99.890137%)" offset="0.601562"/><stop stop-opacity="1" stop-color="rgb(34.169006%, 24.351501%, 99.897766%)" offset="0.605469"/><stop stop-opacity="1" stop-color="rgb(34.339905%, 23.974609%, 99.905396%)" offset="0.609375"/><stop stop-opacity="1" stop-color="rgb(34.509277%, 23.596191%, 99.911499%)" offset="0.613281"/><stop stop-opacity="1" stop-color="rgb(34.680176%, 23.219299%, 99.919128%)" offset="0.617188"/><stop stop-opacity="1" stop-color="rgb(34.851074%, 22.842407%, 99.926758%)" offset="0.621094"/><stop stop-opacity="1" stop-color="rgb(35.021973%, 22.465515%, 99.934387%)" offset="0.625"/><stop stop-opacity="1" stop-color="rgb(35.192871%, 22.088623%, 99.942017%)" offset="0.628906"/><stop stop-opacity="1" stop-color="rgb(35.36377%, 21.711731%, 99.949646%)" offset="0.632813"/><stop stop-opacity="1" stop-color="rgb(35.533142%, 21.333313%, 99.957275%)" offset="0.636719"/><stop stop-opacity="1" stop-color="rgb(35.704041%, 20.956421%, 99.964905%)" offset="0.640625"/><stop stop-opacity="1" stop-color="rgb(35.874939%, 20.579529%, 99.972534%)" offset="0.644531"/><stop stop-opacity="1" stop-color="rgb(36.045837%, 20.202637%, 99.980164%)" offset="0.648438"/><stop stop-opacity="1" stop-color="rgb(36.21521%, 19.825745%, 99.986267%)" offset="0.652344"/><stop stop-opacity="1" stop-color="rgb(36.386108%, 19.448853%, 99.993896%)" offset="0.65625"/><stop stop-opacity="1" stop-color="rgb(36.686707%, 19.390869%, 99.996948%)" offset="0.660156"/><stop stop-opacity="1" stop-color="rgb(36.987305%, 19.332886%, 100%)" offset="0.664063"/><stop stop-opacity="1" stop-color="rgb(37.35199%, 19.432068%, 100%)" offset="0.667969"/><stop stop-opacity="1" stop-color="rgb(37.716675%, 19.532776%, 100%)" offset="0.671875"/><stop stop-opacity="1" stop-color="rgb(38.08136%, 19.631958%, 100%)" offset="0.675781"/><stop stop-opacity="1" stop-color="rgb(38.446045%, 19.732666%, 100%)" offset="0.679687"/><stop stop-opacity="1" stop-color="rgb(38.81073%, 19.831848%, 100%)" offset="0.683594"/><stop stop-opacity="1" stop-color="rgb(39.176941%, 19.932556%, 100%)" offset="0.6875"/><stop stop-opacity="1" stop-color="rgb(39.541626%, 20.031738%, 100%)" offset="0.691406"/><stop stop-opacity="1" stop-color="rgb(39.906311%, 20.132446%, 100%)" offset="0.695313"/><stop stop-opacity="1" stop-color="rgb(40.270996%, 20.231628%, 100%)" offset="0.699219"/><stop stop-opacity="1" stop-color="rgb(40.635681%, 20.332336%, 100%)" offset="0.703125"/><stop stop-opacity="1" stop-color="rgb(41.000366%, 20.431519%, 100%)" offset="0.707031"/><stop stop-opacity="1" stop-color="rgb(41.365051%, 20.530701%, 100%)" offset="0.710937"/><stop stop-opacity="1" stop-color="rgb(41.729736%, 20.629883%, 100%)" offset="0.714844"/><stop stop-opacity="1" stop-color="rgb(42.094421%, 20.730591%, 100%)" offset="0.71875"/><stop stop-opacity="1" stop-color="rgb(42.459106%, 20.829773%, 100%)" offset="0.722656"/><stop stop-opacity="1" stop-color="rgb(42.823792%, 20.930481%, 100%)" offset="0.726563"/><stop stop-opacity="1" stop-color="rgb(43.188477%, 21.029663%, 100%)" offset="0.730469"/><stop stop-opacity="1" stop-color="rgb(43.553162%, 21.130371%, 100%)" offset="0.734375"/><stop stop-opacity="1" stop-color="rgb(43.917847%, 21.229553%, 100%)" offset="0.738281"/><stop stop-opacity="1" stop-color="rgb(44.282532%, 21.330261%, 100%)" offset="0.742187"/><stop stop-opacity="1" stop-color="rgb(44.647217%, 21.429443%, 100%)" offset="0.746094"/><stop stop-opacity="1" stop-color="rgb(45.011902%, 21.530151%, 100%)" offset="0.75"/><stop stop-opacity="1" stop-color="rgb(45.376587%, 21.629333%, 100%)" offset="0.753906"/><stop stop-opacity="1" stop-color="rgb(45.741272%, 21.730042%, 100%)" offset="0.757813"/><stop stop-opacity="1" stop-color="rgb(46.105957%, 21.829224%, 100%)" offset="0.761719"/><stop stop-opacity="1" stop-color="rgb(46.470642%, 21.929932%, 100%)" offset="0.765625"/><stop stop-opacity="1" stop-color="rgb(46.835327%, 22.029114%, 100%)" offset="0.769531"/><stop stop-opacity="1" stop-color="rgb(47.200012%, 22.129822%, 100%)" offset="0.773437"/><stop stop-opacity="1" stop-color="rgb(47.564697%, 22.229004%, 100%)" offset="0.777344"/><stop stop-opacity="1" stop-color="rgb(47.929382%, 22.329712%, 100%)" offset="0.78125"/><stop stop-opacity="1" stop-color="rgb(48.294067%, 22.428894%, 100%)" offset="0.785156"/><stop stop-opacity="1" stop-color="rgb(48.658752%, 22.528076%, 100%)" offset="0.789063"/><stop stop-opacity="1" stop-color="rgb(49.023438%, 22.627258%, 100%)" offset="0.792969"/><stop stop-opacity="1" stop-color="rgb(49.388123%, 22.727966%, 100%)" offset="0.796875"/><stop stop-opacity="1" stop-color="rgb(49.752808%, 22.827148%, 100%)" offset="0.800781"/><stop stop-opacity="1" stop-color="rgb(50.117493%, 22.927856%, 100%)" offset="0.804687"/><stop stop-opacity="1" stop-color="rgb(50.482178%, 23.027039%, 100%)" offset="0.808594"/><stop stop-opacity="1" stop-color="rgb(50.846863%, 23.127747%, 100%)" offset="0.8125"/><stop stop-opacity="1" stop-color="rgb(51.211548%, 23.226929%, 100%)" offset="0.816406"/><stop stop-opacity="1" stop-color="rgb(51.576233%, 23.327637%, 100%)" offset="0.820313"/><stop stop-opacity="1" stop-color="rgb(51.940918%, 23.426819%, 100%)" offset="0.824219"/><stop stop-opacity="1" stop-color="rgb(52.307129%, 23.527527%, 100%)" offset="0.828125"/><stop stop-opacity="1" stop-color="rgb(52.671814%, 23.626709%, 100%)" offset="0.832031"/><stop stop-opacity="1" stop-color="rgb(53.036499%, 23.727417%, 100%)" offset="0.835937"/><stop stop-opacity="1" stop-color="rgb(53.401184%, 23.826599%, 100%)" offset="0.839844"/><stop stop-opacity="1" stop-color="rgb(53.765869%, 23.927307%, 100%)" offset="0.84375"/><stop stop-opacity="1" stop-color="rgb(54.130554%, 24.026489%, 100%)" offset="0.847656"/><stop stop-opacity="1" stop-color="rgb(54.495239%, 24.127197%, 100%)" offset="0.851563"/><stop stop-opacity="1" stop-color="rgb(54.859924%, 24.226379%, 100%)" offset="0.855469"/><stop stop-opacity="1" stop-color="rgb(55.224609%, 24.327087%, 100%)" offset="0.859375"/><stop stop-opacity="1" stop-color="rgb(55.589294%, 24.42627%, 100%)" offset="0.863281"/><stop stop-opacity="1" stop-color="rgb(55.953979%, 24.525452%, 100%)" offset="0.867187"/><stop stop-opacity="1" stop-color="rgb(56.318665%, 24.624634%, 100%)" offset="0.871094"/><stop stop-opacity="1" stop-color="rgb(56.68335%, 24.725342%, 100%)" offset="0.875"/><stop stop-opacity="1" stop-color="rgb(57.048035%, 24.824524%, 100%)" offset="0.878906"/><stop stop-opacity="1" stop-color="rgb(57.41272%, 24.925232%, 100%)" offset="0.882813"/><stop stop-opacity="1" stop-color="rgb(57.777405%, 25.024414%, 100%)" offset="0.886719"/><stop stop-opacity="1" stop-color="rgb(58.14209%, 25.125122%, 100%)" offset="0.890625"/><stop stop-opacity="1" stop-color="rgb(58.506775%, 25.224304%, 100%)" offset="0.894531"/><stop stop-opacity="1" stop-color="rgb(58.87146%, 25.325012%, 100%)" offset="0.898437"/><stop stop-opacity="1" stop-color="rgb(59.236145%, 25.424194%, 100%)" offset="0.902344"/><stop stop-opacity="1" stop-color="rgb(59.60083%, 25.524902%, 100%)" offset="0.90625"/><stop stop-opacity="1" stop-color="rgb(59.965515%, 25.624084%, 100%)" offset="0.910156"/><stop stop-opacity="1" stop-color="rgb(60.3302%, 25.724792%, 100%)" offset="0.914063"/><stop stop-opacity="1" stop-color="rgb(60.694885%, 25.823975%, 100%)" offset="0.917969"/><stop stop-opacity="1" stop-color="rgb(61.05957%, 25.924683%, 100%)" offset="0.921875"/><stop stop-opacity="1" stop-color="rgb(61.424255%, 26.023865%, 100%)" offset="0.925781"/><stop stop-opacity="1" stop-color="rgb(61.78894%, 26.124573%, 100%)" offset="0.929687"/><stop stop-opacity="1" stop-color="rgb(62.153625%, 26.223755%, 100%)" offset="0.933594"/><stop stop-opacity="1" stop-color="rgb(62.518311%, 26.322937%, 100%)" offset="0.9375"/><stop stop-opacity="1" stop-color="rgb(62.882996%, 26.422119%, 100%)" offset="0.941406"/><stop stop-opacity="1" stop-color="rgb(63.247681%, 26.522827%, 100%)" offset="0.945313"/><stop stop-opacity="1" stop-color="rgb(63.612366%, 26.622009%, 100%)" offset="0.949219"/><stop stop-opacity="1" stop-color="rgb(63.977051%, 26.722717%, 100%)" offset="0.953125"/><stop stop-opacity="1" stop-color="rgb(64.341736%, 26.821899%, 100%)" offset="0.957031"/><stop stop-opacity="1" stop-color="rgb(64.707947%, 26.922607%, 100%)" offset="0.960937"/><stop stop-opacity="1" stop-color="rgb(65.072632%, 27.02179%, 100%)" offset="0.964844"/><stop stop-opacity="1" stop-color="rgb(65.437317%, 27.122498%, 100%)" offset="0.96875"/><stop stop-opacity="1" stop-color="rgb(65.802002%, 27.22168%, 100%)" offset="0.972656"/><stop stop-opacity="1" stop-color="rgb(66.166687%, 27.322388%, 100%)" offset="0.976563"/><stop stop-opacity="1" stop-color="rgb(66.531372%, 27.42157%, 100%)" offset="0.980469"/><stop stop-opacity="1" stop-color="rgb(66.896057%, 27.522278%, 100%)" offset="0.984375"/><stop stop-opacity="1" stop-color="rgb(67.260742%, 27.62146%, 100%)" offset="0.988281"/><stop stop-opacity="1" stop-color="rgb(67.625427%, 27.722168%, 100%)" offset="0.992187"/><stop stop-opacity="1" stop-color="rgb(67.990112%, 27.82135%, 100%)" offset="0.996094"/><stop stop-opacity="1" stop-color="rgb(68.354797%, 27.922058%, 100%)" offset="1"/></linearGradient><clipPath id="0168062f81"><path d="M 20 51 L 48 51 L 48 62.890625 L 20 62.890625 Z M 20 51 " clip-rule="nonzero"/></clipPath><clipPath id="06987d64c8"><path d="M 104 10 L 115 10 L 115 23 L 104 23 Z M 104 10 " clip-rule="nonzero"/></clipPath><clipPath id="484fe7474c"><path d="M 96.917969 6.878906 L 119.71875 3.125 L 123.472656 25.925781 L 100.671875 29.683594 Z M 96.917969 6.878906 " clip-rule="nonzero"/></clipPath><clipPath id="032b79ac90"><path d="M 96.917969 6.878906 L 119.71875 3.125 L 123.472656 25.925781 L 100.671875 29.683594 Z M 96.917969 6.878906 " clip-rule="nonzero"/></clipPath><clipPath id="f18893cda5"><path d="M 96.917969 6.878906 L 119.71875 3.125 L 123.472656 25.925781 L 100.671875 29.683594 Z M 96.917969 6.878906 " clip-rule="nonzero"/></clipPath></defs><g clip-path="url(#704daaf050)"><path fill="#ffffff" d="M 0.496094 0 L 164.503906 0 L 164.503906 82.003906 L 0.496094 82.003906 Z M 0.496094 0 " fill-opacity="1" fill-rule="nonzero"/><path fill="#ffffff" d="M 0.496094 0 L 164.503906 0 L 164.503906 82.003906 L 0.496094 82.003906 Z M 0.496094 0 " fill-opacity="1" fill-rule="nonzero"/></g><path fill="#1f0256" d="M 76.480469 49.582031 C 75.75 50.332031 74.875 50.929688 73.902344 51.332031 C 72.933594 51.738281 71.894531 51.941406 70.84375 51.933594 C 69.957031 51.957031 69.070312 51.804688 68.246094 51.476562 C 67.421875 51.152344 66.671875 50.664062 66.046875 50.039062 C 64.90625 48.855469 64.25 47.164062 64.25 45.152344 C 64.25 41.121094 66.886719 38.367188 70.84375 38.367188 C 71.902344 38.351562 72.957031 38.570312 73.921875 39.003906 C 74.886719 39.441406 75.746094 40.085938 76.433594 40.890625 L 79.855469 37.878906 C 77.625 35.183594 74.007812 33.792969 70.570312 33.792969 C 63.84375 33.792969 59.074219 38.40625 59.074219 45.191406 C 59.074219 48.546875 60.257812 51.375 62.257812 53.371094 C 64.257812 55.363281 67.105469 56.539062 70.390625 56.539062 C 74.660156 56.539062 78.0625 54.8125 79.976562 52.648438 Z M 76.480469 49.582031 " fill-opacity="1" fill-rule="nonzero"/><path fill="#1f0256" d="M 83.070312 25.1875 L 88.167969 25.1875 L 88.167969 56.179688 L 83.070312 56.179688 Z M 83.070312 25.1875 " fill-opacity="1" fill-rule="nonzero"/><path fill="#1f0256" d="M 112.714844 46.914062 C 112.796875 46.238281 112.84375 45.558594 112.851562 44.878906 C 112.851562 38.453125 108.625 33.796875 102.082031 33.796875 C 100.640625 33.769531 99.207031 34.035156 97.871094 34.578125 C 96.535156 35.121094 95.328125 35.933594 94.316406 36.957031 C 92.40625 38.953125 91.261719 41.78125 91.261719 45.152344 C 91.261719 52.019531 96.128906 56.542969 102.582031 56.542969 C 106.914062 56.542969 110.03125 54.796875 111.898438 52.433594 L 108.5625 49.492188 L 108.394531 49.351562 C 107.734375 50.175781 106.890625 50.839844 105.929688 51.285156 C 104.964844 51.730469 103.914062 51.953125 102.855469 51.929688 C 99.578125 51.929688 97.214844 50.027344 96.542969 46.914062 Z M 96.625 42.84375 C 96.855469 41.863281 97.320312 40.953125 97.984375 40.191406 C 98.535156 39.589844 99.210938 39.117188 99.964844 38.804688 C 100.71875 38.488281 101.53125 38.339844 102.347656 38.363281 C 105.257812 38.363281 107.082031 40.175781 107.707031 42.84375 Z M 96.625 42.84375 " fill-opacity="1" fill-rule="nonzero"/><path fill="#1f0256" d="M 128.605469 33.730469 L 128.605469 39.382812 C 128.015625 39.339844 127.421875 39.292969 127.0625 39.292969 C 123.203125 39.292969 121.015625 42.050781 121.015625 45.667969 L 121.015625 56.179688 L 115.925781 56.179688 L 115.925781 34.046875 L 121.015625 34.046875 L 121.015625 37.398438 L 121.0625 37.398438 C 122.789062 35.046875 125.269531 33.738281 127.96875 33.738281 Z M 128.605469 33.730469 " fill-opacity="1" fill-rule="nonzero"/><path fill="#1f0256" d="M 140.472656 46.910156 L 136.792969 50.980469 L 136.792969 56.179688 L 131.699219 56.179688 L 131.699219 25.1875 L 136.792969 25.1875 L 136.792969 44.199219 L 145.878906 34.117188 L 151.925781 34.117188 L 143.929688 43.023438 L 152.066406 56.179688 L 146.339844 56.179688 L 140.566406 46.910156 Z M 140.472656 46.910156 " fill-opacity="1" fill-rule="nonzero"/><g clip-path="url(#6a3885383b)"><g clip-path="url(#9b7ccad530)"><path fill="url(#0759eab74b)" d="M 11.734375 18.90625 L 11.734375 54.253906 L 47.265625 54.253906 L 47.265625 18.90625 Z M 11.734375 18.90625 " fill-rule="nonzero"/></g></g><g clip-path="url(#0168062f81)"><path fill="#1f0256" d="M 46.941406 57.078125 L 41.636719 51.796875 C 41.46875 51.632812 41.25 51.527344 41.015625 51.5 C 40.78125 51.472656 40.546875 51.523438 40.34375 51.644531 C 38.375 52.824219 36.121094 53.449219 33.824219 53.449219 C 31.523438 53.449219 29.269531 52.824219 27.300781 51.644531 C 27.101562 51.523438 26.863281 51.472656 26.628906 51.5 C 26.394531 51.527344 26.179688 51.632812 26.011719 51.796875 L 20.703125 57.078125 C 20.59375 57.183594 20.507812 57.3125 20.453125 57.457031 C 20.398438 57.601562 20.375 57.753906 20.382812 57.90625 C 20.394531 58.058594 20.441406 58.207031 20.515625 58.34375 C 20.589844 58.476562 20.695312 58.59375 20.820312 58.683594 C 24.597656 61.417969 29.148438 62.890625 33.820312 62.890625 C 38.492188 62.890625 43.042969 61.417969 46.820312 58.683594 C 46.945312 58.59375 47.050781 58.476562 47.125 58.34375 C 47.203125 58.210938 47.246094 58.0625 47.257812 57.910156 C 47.269531 57.753906 47.246094 57.601562 47.191406 57.457031 C 47.136719 57.3125 47.050781 57.183594 46.941406 57.078125 Z M 46.941406 57.078125 " fill-opacity="1" fill-rule="nonzero"/></g><path fill="#1f0256" d="M 33.835938 47.167969 C 37.320312 47.167969 40.148438 44.355469 40.148438 40.886719 C 40.148438 37.421875 37.320312 34.609375 33.835938 34.609375 C 30.347656 34.609375 27.519531 37.421875 27.519531 40.886719 C 27.519531 44.355469 30.347656 47.167969 33.835938 47.167969 Z M 33.835938 47.167969 " fill-opacity="1" fill-rule="nonzero"/><g clip-path="url(#06987d64c8)"><g clip-path="url(#484fe7474c)"><g clip-path="url(#032b79ac90)"><g clip-path="url(#f18893cda5)"><path fill="#000000" d="M 109.109375 22.371094 C 109.40625 22.050781 109.734375 21.8125 110.089844 21.613281 C 110.269531 21.515625 110.4375 21.4375 110.636719 21.378906 C 110.710938 21.355469 110.71875 21.328125 110.707031 21.25 C 110.558594 20.507812 110.148438 18.414062 110.097656 18.097656 C 110.082031 18.007812 110.050781 17.960938 109.976562 17.910156 C 108.894531 17.203125 104.980469 14.449219 104.921875 14.410156 L 110.574219 13.476562 C 110.660156 13.464844 110.71875 13.429688 110.773438 13.355469 C 111.039062 12.984375 111.300781 12.617188 111.566406 12.246094 C 111.621094 12.1875 111.613281 12.136719 111.566406 12.078125 C 111.390625 11.886719 111.300781 11.652344 111.320312 11.390625 C 111.359375 10.980469 111.707031 10.714844 112.164062 10.742188 C 112.257812 10.753906 112.363281 10.761719 112.449219 10.8125 C 112.550781 10.875 112.597656 10.828125 112.648438 10.753906 C 112.773438 10.566406 112.925781 10.382812 113.046875 10.183594 C 113.089844 10.109375 113.128906 10.117188 113.1875 10.160156 C 113.425781 10.328125 113.425781 10.328125 113.253906 10.566406 C 113.148438 10.710938 113.03125 10.875 112.925781 11.023438 C 112.882812 11.082031 112.886719 11.105469 112.9375 11.164062 C 113.113281 11.355469 113.210938 11.574219 113.191406 11.835938 C 113.160156 12.273438 112.8125 12.539062 112.363281 12.492188 C 112.246094 12.488281 112.132812 12.453125 112.023438 12.40625 C 111.980469 12.386719 111.953125 12.378906 111.921875 12.421875 C 111.71875 12.703125 111.519531 12.984375 111.316406 13.265625 C 111.296875 13.292969 111.273438 13.3125 111.269531 13.363281 L 114.5625 12.820312 C 114.574219 12.882812 111.066406 17.585938 110.925781 17.765625 C 110.871094 17.828125 110.855469 17.882812 110.871094 17.96875 C 111.019531 19.027344 111.15625 20.097656 111.304688 21.152344 C 111.316406 21.226562 111.332031 21.25 111.410156 21.25 C 111.96875 21.25 112.5 21.382812 113.007812 21.625 C 113.050781 21.644531 113.09375 21.675781 113.164062 21.703125 Z M 109.109375 22.371094 " fill-opacity="1" fill-rule="nonzero"/></g></g></g></g><g fill="#000000" fill-opacity="1"><g transform="translate(116.815175, 14.001119)"><g><path d="M 3.285156 -0.539062 L 3.921875 -0.644531 L 3.972656 -5.503906 L 3.339844 -5.402344 L 3.316406 -3.296875 L 1.035156 -2.921875 L 1.0625 -5.027344 L 0.421875 -4.921875 L 0.371094 -0.0625 L 1.011719 -0.167969 L 1.03125 -2.367188 L 3.304688 -2.742188 Z M 3.285156 -0.539062 "/></g></g></g><g fill="#000000" fill-opacity="1"><g transform="translate(121.713504, 13.19459)"><g><path d="M 3.496094 -0.605469 L 3.507812 -1.015625 C 3.421875 -0.980469 3.335938 -0.957031 3.28125 -0.949219 C 3.042969 -0.910156 2.914062 -1.070312 2.917969 -1.386719 L 2.945312 -4.074219 L 2.527344 -3.796875 C 2.277344 -3.886719 2.015625 -3.921875 1.730469 -3.875 C 0.46875 -3.667969 -0.0117188 -2.300781 0.164062 -1.226562 C 0.316406 -0.300781 0.875 -0.0625 1.328125 -0.136719 C 1.6875 -0.195312 2.011719 -0.449219 2.355469 -0.96875 C 2.425781 -0.578125 2.691406 -0.359375 3.082031 -0.425781 C 3.25 -0.453125 3.398438 -0.523438 3.496094 -0.605469 Z M 0.777344 -1.417969 C 0.65625 -2.160156 0.851562 -3.203125 1.835938 -3.367188 C 1.992188 -3.390625 2.164062 -3.398438 2.328125 -3.363281 L 2.3125 -1.449219 C 1.992188 -0.953125 1.71875 -0.753906 1.449219 -0.710938 C 1.199219 -0.667969 0.886719 -0.757812 0.777344 -1.417969 Z M 0.777344 -1.417969 "/></g></g></g><g fill="#000000" fill-opacity="1"><g transform="translate(125.606523, 12.55359)"><g><path d="M 1.605469 -0.179688 C 2.832031 -0.382812 3.328125 -1.726562 3.140625 -2.847656 C 2.992188 -3.75 2.546875 -4.007812 2.070312 -3.929688 C 1.671875 -3.863281 1.363281 -3.59375 0.964844 -3.097656 L 0.976562 -3.75 L 0.394531 -3.535156 L 0.339844 1.675781 L 0.945312 1.578125 L 0.96875 -0.207031 C 1.167969 -0.15625 1.371094 -0.140625 1.605469 -0.179688 Z M 1.925781 -3.367188 C 2.175781 -3.40625 2.425781 -3.277344 2.527344 -2.660156 C 2.65625 -1.878906 2.425781 -0.84375 1.535156 -0.695312 C 1.359375 -0.667969 1.164062 -0.671875 0.96875 -0.714844 L 0.996094 -2.664062 C 1.320312 -3.050781 1.621094 -3.316406 1.925781 -3.367188 Z M 1.925781 -3.367188 "/></g></g></g><g fill="#000000" fill-opacity="1"><g transform="translate(129.47256, 11.917033)"><g><path d="M 1.605469 -0.179688 C 2.832031 -0.382812 3.328125 -1.726562 3.140625 -2.847656 C 2.992188 -3.75 2.546875 -4.007812 2.070312 -3.929688 C 1.671875 -3.863281 1.363281 -3.59375 0.964844 -3.097656 L 0.976562 -3.75 L 0.394531 -3.535156 L 0.339844 1.675781 L 0.945312 1.578125 L 0.96875 -0.207031 C 1.167969 -0.15625 1.371094 -0.140625 1.605469 -0.179688 Z M 1.925781 -3.367188 C 2.175781 -3.40625 2.425781 -3.277344 2.527344 -2.660156 C 2.65625 -1.878906 2.425781 -0.84375 1.535156 -0.695312 C 1.359375 -0.667969 1.164062 -0.671875 0.96875 -0.714844 L 0.996094 -2.664062 C 1.320312 -3.050781 1.621094 -3.316406 1.925781 -3.367188 Z M 1.925781 -3.367188 "/></g></g></g><g fill="#000000" fill-opacity="1"><g transform="translate(133.338597, 11.280475)"><g><path d="M 1.707031 -0.324219 L 2.429688 -2.257812 C 2.710938 -3.015625 2.742188 -3.390625 2.703125 -3.953125 L 2.109375 -3.855469 C 2.136719 -3.269531 2.074219 -2.886719 1.921875 -2.429688 L 1.445312 -0.9375 L 0.457031 -3.664062 L -0.132812 -3.449219 L 1.136719 -0.171875 C 0.886719 0.582031 0.570312 0.980469 -0.0351562 1.378906 L 0.121094 1.796875 C 0.988281 1.367188 1.210938 1.007812 1.707031 -0.324219 Z M 1.707031 -0.324219 "/></g></g></g><g fill="#000000" fill-opacity="1"><g transform="translate(136.725597, 10.722792)"><g/></g></g><g fill="#000000" fill-opacity="1"><g transform="translate(138.317889, 10.460616)"><g><path d="M 3.285156 -0.539062 L 3.921875 -0.644531 L 3.972656 -5.503906 L 3.339844 -5.402344 L 3.316406 -3.296875 L 1.035156 -2.921875 L 1.0625 -5.027344 L 0.421875 -4.921875 L 0.371094 -0.0625 L 1.011719 -0.167969 L 1.03125 -2.367188 L 3.304688 -2.742188 Z M 3.285156 -0.539062 "/></g></g></g><g fill="#000000" fill-opacity="1"><g transform="translate(143.216218, 9.654087)"><g><path d="M 1.570312 -3.847656 C 0.515625 -3.675781 -0.0429688 -2.621094 0.148438 -1.464844 C 0.304688 -0.5 0.984375 -0.0703125 1.78125 -0.203125 C 2.828125 -0.375 3.394531 -1.433594 3.207031 -2.585938 C 3.046875 -3.550781 2.359375 -3.976562 1.570312 -3.847656 Z M 1.648438 -3.371094 C 2.09375 -3.441406 2.46875 -3.136719 2.578125 -2.484375 C 2.722656 -1.613281 2.378906 -0.792969 1.710938 -0.683594 C 1.257812 -0.609375 0.890625 -0.914062 0.78125 -1.578125 C 0.636719 -2.445312 0.972656 -3.257812 1.648438 -3.371094 Z M 1.648438 -3.371094 "/></g></g></g><g fill="#000000" fill-opacity="1"><g transform="translate(147.129484, 9.009753)"><g><path d="M 3.46875 -0.597656 L 3.472656 -1.007812 C 3.402344 -0.976562 3.320312 -0.957031 3.265625 -0.945312 C 3.039062 -0.910156 2.90625 -1.066406 2.910156 -1.386719 L 2.941406 -3.992188 L 2.324219 -3.890625 L 2.296875 -1.328125 C 1.992188 -0.988281 1.691406 -0.75 1.421875 -0.707031 C 1.097656 -0.652344 0.941406 -0.890625 0.941406 -1.347656 L 0.96875 -3.75 L 0.355469 -3.53125 L 0.335938 -1.199219 C 0.324219 -0.335938 0.769531 -0.0429688 1.273438 -0.125 C 1.640625 -0.1875 1.984375 -0.445312 2.355469 -0.894531 C 2.453125 -0.554688 2.707031 -0.363281 3.078125 -0.421875 C 3.246094 -0.449219 3.371094 -0.519531 3.46875 -0.597656 Z M 3.46875 -0.597656 "/></g></g></g><g fill="#000000" fill-opacity="1"><g transform="translate(151.056244, 8.363197)"><g><path d="M 2.070312 -3.335938 L 2.09375 -3.941406 C 1.574219 -3.855469 1.234375 -3.65625 0.96875 -3.242188 L 0.976562 -3.75 L 0.394531 -3.535156 L 0.359375 -0.0585938 L 0.964844 -0.160156 L 0.992188 -2.886719 C 1.300781 -3.125 1.597656 -3.25 2.070312 -3.335938 Z M 2.070312 -3.335938 "/></g></g></g><g fill="#000000" fill-opacity="1"><g transform="translate(124.375682, 21.996086)"><g><path d="M 0.164062 -0.867188 L 0.0234375 -0.324219 C 0.335938 -0.144531 0.84375 -0.0546875 1.390625 -0.144531 C 2.488281 -0.328125 3.035156 -1.011719 2.898438 -1.847656 C 2.675781 -3.191406 0.949219 -2.902344 0.804688 -3.792969 C 0.730469 -4.242188 1.085938 -4.566406 1.664062 -4.660156 C 1.96875 -4.710938 2.332031 -4.679688 2.644531 -4.59375 L 2.765625 -5.125 C 2.445312 -5.234375 1.988281 -5.261719 1.589844 -5.195312 C 0.585938 -5.03125 0.046875 -4.394531 0.171875 -3.625 C 0.382812 -2.351562 2.105469 -2.648438 2.265625 -1.683594 C 2.355469 -1.136719 1.976562 -0.789062 1.320312 -0.683594 C 0.9375 -0.617188 0.550781 -0.6875 0.164062 -0.867188 Z M 0.164062 -0.867188 "/></g></g></g><g fill="#000000" fill-opacity="1"><g transform="translate(127.890873, 21.417296)"><g><path d="M 1.605469 -0.179688 C 2.832031 -0.382812 3.328125 -1.726562 3.140625 -2.847656 C 2.992188 -3.75 2.546875 -4.007812 2.070312 -3.929688 C 1.671875 -3.863281 1.363281 -3.59375 0.964844 -3.097656 L 0.976562 -3.75 L 0.394531 -3.535156 L 0.339844 1.675781 L 0.945312 1.578125 L 0.96875 -0.207031 C 1.167969 -0.15625 1.371094 -0.140625 1.605469 -0.179688 Z M 1.925781 -3.367188 C 2.175781 -3.40625 2.425781 -3.277344 2.527344 -2.660156 C 2.65625 -1.878906 2.425781 -0.84375 1.535156 -0.695312 C 1.359375 -0.667969 1.164062 -0.671875 0.96875 -0.714844 L 0.996094 -2.664062 C 1.320312 -3.050781 1.621094 -3.316406 1.925781 -3.367188 Z M 1.925781 -3.367188 "/></g></g></g><g fill="#000000" fill-opacity="1"><g transform="translate(131.75691, 20.780738)"><g><path d="M 1.570312 -3.847656 C 0.515625 -3.675781 -0.0429688 -2.621094 0.148438 -1.464844 C 0.304688 -0.5 0.984375 -0.0703125 1.78125 -0.203125 C 2.828125 -0.375 3.394531 -1.433594 3.207031 -2.585938 C 3.046875 -3.550781 2.359375 -3.976562 1.570312 -3.847656 Z M 1.648438 -3.371094 C 2.09375 -3.441406 2.46875 -3.136719 2.578125 -2.484375 C 2.722656 -1.613281 2.378906 -0.792969 1.710938 -0.683594 C 1.257812 -0.609375 0.890625 -0.914062 0.78125 -1.578125 C 0.636719 -2.445312 0.972656 -3.257812 1.648438 -3.371094 Z M 1.648438 -3.371094 "/></g></g></g><g fill="#000000" fill-opacity="1"><g transform="translate(135.670175, 20.136404)"><g><path d="M 1.988281 -3.371094 C 2.3125 -3.421875 2.484375 -3.179688 2.484375 -2.714844 L 2.457031 -0.40625 L 3.0625 -0.503906 L 3.089844 -2.898438 C 3.097656 -3.746094 2.636719 -4.023438 2.128906 -3.941406 C 1.730469 -3.875 1.375 -3.601562 0.964844 -3.105469 L 0.976562 -3.75 L 0.394531 -3.535156 L 0.359375 -0.0585938 L 0.964844 -0.160156 L 0.988281 -2.636719 C 1.332031 -3.03125 1.679688 -3.320312 1.988281 -3.371094 Z M 1.988281 -3.371094 "/></g></g></g><g fill="#000000" fill-opacity="1"><g transform="translate(139.671146, 19.47763)"><g><path d="M 0.160156 -0.710938 L 0.0234375 -0.238281 C 0.269531 -0.128906 0.703125 -0.03125 1.167969 -0.109375 C 2.011719 -0.246094 2.367188 -0.804688 2.28125 -1.332031 C 2.140625 -2.183594 0.824219 -2.152344 0.726562 -2.738281 C 0.691406 -2.957031 0.839844 -3.234375 1.292969 -3.308594 C 1.546875 -3.351562 1.84375 -3.3125 2.089844 -3.246094 L 2.195312 -3.714844 C 1.972656 -3.796875 1.605469 -3.855469 1.21875 -3.789062 C 0.390625 -3.652344 0.0117188 -3.085938 0.0976562 -2.566406 C 0.238281 -1.703125 1.554688 -1.746094 1.652344 -1.164062 C 1.695312 -0.910156 1.492188 -0.65625 1.082031 -0.585938 C 0.777344 -0.535156 0.433594 -0.605469 0.160156 -0.710938 Z M 0.160156 -0.710938 "/></g></g></g><g fill="#000000" fill-opacity="1"><g transform="translate(142.545367, 19.004378)"><g><path d="M 1.570312 -3.847656 C 0.515625 -3.675781 -0.0429688 -2.621094 0.148438 -1.464844 C 0.304688 -0.5 0.984375 -0.0703125 1.78125 -0.203125 C 2.828125 -0.375 3.394531 -1.433594 3.207031 -2.585938 C 3.046875 -3.550781 2.359375 -3.976562 1.570312 -3.847656 Z M 1.648438 -3.371094 C 2.09375 -3.441406 2.46875 -3.136719 2.578125 -2.484375 C 2.722656 -1.613281 2.378906 -0.792969 1.710938 -0.683594 C 1.257812 -0.609375 0.890625 -0.914062 0.78125 -1.578125 C 0.636719 -2.445312 0.972656 -3.257812 1.648438 -3.371094 Z M 1.648438 -3.371094 "/></g></g></g><g fill="#000000" fill-opacity="1"><g transform="translate(146.458633, 18.360044)"><g><path d="M 2.070312 -3.335938 L 2.09375 -3.941406 C 1.574219 -3.855469 1.234375 -3.65625 0.96875 -3.242188 L 0.976562 -3.75 L 0.394531 -3.535156 L 0.359375 -0.0585938 L 0.964844 -0.160156 L 0.992188 -2.886719 C 1.300781 -3.125 1.597656 -3.25 2.070312 -3.335938 Z M 2.070312 -3.335938 "/></g></g></g></svg>