<svg xmlns="http://www.w3.org/2000/svg" xmlns:xlink="http://www.w3.org/1999/xlink" width="220" zoomAndPan="magnify" viewBox="0 0 165 82.499998" height="110" preserveAspectRatio="xMidYMid meet" version="1.0"><defs><clipPath id="ade517dc09"><path d="M 0.496094 0 L 164.503906 0 L 164.503906 82.003906 L 0.496094 82.003906 Z M 0.496094 0 " clip-rule="nonzero"/></clipPath></defs><g clip-path="url(#ade517dc09)"><path fill="#ffffff" d="M 0.496094 0 L 164.503906 0 L 164.503906 89.457031 L 0.496094 89.457031 Z M 0.496094 0 " fill-opacity="1" fill-rule="nonzero"/><path fill="#ffffff" d="M 0.496094 0 L 164.503906 0 L 164.503906 82.003906 L 0.496094 82.003906 Z M 0.496094 0 " fill-opacity="1" fill-rule="nonzero"/><path fill="#ffffff" d="M 0.496094 0 L 164.503906 0 L 164.503906 82.003906 L 0.496094 82.003906 Z M 0.496094 0 " fill-opacity="1" fill-rule="nonzero"/></g><path fill="#2b6482" d="M 129.683594 49.796875 C 129.980469 49.796875 130.542969 49.90625 131.398438 50.09375 C 132.175781 50.230469 132.738281 50.363281 133.085938 50.496094 C 133.21875 50.523438 133.296875 50.605469 133.296875 50.6875 C 133.273438 50.714844 133.273438 50.792969 133.246094 50.929688 C 133.003906 52.382812 132.871094 53.941406 132.871094 55.558594 C 132.871094 56.175781 132.898438 57.089844 132.976562 58.328125 C 133.058594 59.566406 133.085938 60.480469 133.085938 61.074219 C 133.085938 61.394531 132.949219 61.558594 132.65625 61.613281 C 131.640625 61.691406 130.515625 61.71875 129.257812 61.71875 C 129.070312 61.691406 128.960938 61.476562 128.910156 61.019531 C 128.855469 60.5625 128.800781 60.320312 128.75 60.292969 C 128.695312 60.320312 128.613281 60.402344 128.507812 60.535156 C 127.597656 61.421875 126.632812 61.878906 125.617188 61.878906 C 124.039062 61.878906 122.753906 61.261719 121.734375 60.050781 C 120.773438 58.894531 120.289062 57.496094 120.316406 55.878906 C 120.316406 54.023438 120.824219 52.542969 121.816406 51.414062 C 122.832031 50.230469 124.277344 49.636719 126.097656 49.636719 C 127.355469 49.636719 128.347656 50.066406 129.070312 50.957031 C 129.097656 51.007812 129.148438 51.035156 129.175781 51.035156 C 129.230469 51.035156 129.3125 50.847656 129.390625 50.445312 C 129.445312 50.011719 129.550781 49.796875 129.683594 49.796875 Z M 135.09375 50.308594 C 135.546875 50.28125 136.191406 50.203125 137.046875 50.066406 C 138.304688 49.796875 138.945312 49.664062 139 49.691406 C 139.160156 49.664062 139.242188 49.933594 139.292969 50.445312 C 139.320312 50.902344 139.402344 51.144531 139.507812 51.199219 C 139.480469 51.171875 139.804688 50.957031 140.5 50.550781 C 141.273438 50.121094 142.023438 49.90625 142.746094 49.90625 C 143.203125 49.90625 143.417969 50.011719 143.417969 50.230469 C 143.417969 50.445312 143.390625 50.765625 143.363281 51.199219 C 143.308594 51.65625 143.28125 51.976562 143.28125 52.191406 C 143.28125 52.433594 143.28125 52.730469 143.28125 53.109375 C 143.308594 53.59375 143.308594 53.914062 143.308594 54.078125 C 143.308594 54.398438 143.121094 54.535156 142.773438 54.535156 C 142.613281 54.535156 142.398438 54.535156 142.132812 54.535156 C 141.808594 54.507812 141.597656 54.480469 141.4375 54.480469 C 140.765625 54.480469 140.3125 54.589844 140.070312 54.804688 C 139.828125 54.992188 139.722656 55.421875 139.75 56.09375 C 139.722656 56.417969 139.722656 56.957031 139.75 57.683594 C 139.75 58.382812 139.75 58.921875 139.777344 59.269531 C 139.777344 59.484375 139.804688 59.835938 139.828125 60.292969 C 139.855469 60.75 139.855469 61.101562 139.855469 61.34375 C 139.855469 61.53125 139.722656 61.613281 139.480469 61.664062 C 139.105469 61.691406 138.492188 61.691406 137.714844 61.691406 C 136.9375 61.691406 136.324219 61.664062 135.894531 61.636719 C 135.628906 61.613281 135.492188 61.476562 135.519531 61.261719 C 135.492188 60.589844 135.492188 59.648438 135.519531 58.382812 C 135.519531 57.089844 135.519531 56.09375 135.519531 55.476562 C 135.492188 53.59375 135.332031 52.03125 134.984375 50.765625 C 134.957031 50.714844 134.957031 50.660156 134.957031 50.632812 C 134.929688 50.417969 134.984375 50.335938 135.09375 50.308594 Z M 154.121094 51.007812 C 155.191406 52.140625 155.726562 53.484375 155.726562 55.046875 C 155.726562 55.851562 155.460938 56.335938 154.953125 56.445312 C 154.871094 56.472656 154.042969 56.550781 152.488281 56.714844 C 151.554688 56.820312 150.132812 56.957031 148.261719 57.089844 C 148.367188 57.628906 148.6875 58.003906 149.25 58.273438 C 149.734375 58.515625 150.269531 58.625 150.882812 58.625 C 151.578125 58.625 152.277344 58.4375 153 58.03125 C 153.292969 57.816406 153.585938 57.628906 153.933594 57.441406 C 154.097656 57.519531 154.363281 57.925781 154.765625 58.679688 C 155.140625 59.40625 155.355469 59.890625 155.355469 60.078125 C 155.355469 60.132812 155.300781 60.238281 155.167969 60.375 C 154.203125 61.421875 152.675781 61.960938 150.617188 61.960938 C 148.6875 61.960938 147.164062 61.394531 146.011719 60.265625 C 144.808594 59.136719 144.21875 57.628906 144.246094 55.746094 C 144.21875 53.886719 144.753906 52.355469 145.851562 51.199219 C 146.949219 49.960938 148.421875 49.367188 150.242188 49.367188 C 151.714844 49.3125 153.023438 49.878906 154.121094 51.007812 Z M 151.5 54.292969 C 151.5 53.78125 151.3125 53.351562 150.964844 53 C 150.617188 52.625 150.1875 52.410156 149.707031 52.410156 C 149.171875 52.382812 148.769531 52.597656 148.421875 53.027344 C 148.101562 53.402344 147.964844 53.886719 147.964844 54.425781 C 147.964844 54.640625 148.074219 54.75 148.3125 54.777344 C 148.902344 54.75 149.8125 54.640625 151.070312 54.453125 C 151.367188 54.425781 151.5 54.371094 151.5 54.292969 Z M 128.347656 53.941406 C 127.890625 53.484375 127.328125 53.242188 126.660156 53.242188 C 125.964844 53.242188 125.402344 53.457031 124.976562 53.914062 C 124.546875 54.347656 124.332031 54.910156 124.332031 55.609375 C 124.359375 56.285156 124.574219 56.847656 125.027344 57.304688 C 125.484375 57.761719 126.019531 58.003906 126.660156 58.003906 C 127.328125 58.003906 127.890625 57.789062 128.320312 57.332031 C 128.777344 56.875 128.988281 56.308594 128.988281 55.609375 C 128.988281 54.9375 128.773438 54.371094 128.347656 53.941406 Z M 30.304688 50.417969 C 30.464844 50.335938 30.785156 50.28125 31.292969 50.230469 C 31.882812 50.175781 32.230469 50.121094 32.339844 50.121094 C 32.445312 50.09375 32.765625 50.011719 33.328125 49.851562 C 33.703125 49.746094 33.996094 49.664062 34.265625 49.664062 C 34.398438 49.664062 34.480469 49.933594 34.507812 50.496094 C 34.535156 51.0625 34.558594 51.332031 34.613281 51.332031 C 34.695312 51.304688 34.800781 51.222656 34.90625 51.171875 C 35.605469 50.605469 36.167969 50.230469 36.59375 50.039062 C 37.210938 49.71875 37.878906 49.582031 38.601562 49.582031 C 39.324219 49.582031 39.992188 49.746094 40.582031 50.066406 C 41.226562 50.445312 41.652344 50.957031 41.867188 51.65625 C 42.269531 51.0625 42.859375 50.578125 43.605469 50.175781 C 44.328125 49.769531 45.078125 49.582031 45.773438 49.582031 C 46.820312 49.582031 47.675781 49.824219 48.371094 50.335938 C 49.121094 50.875 49.496094 51.683594 49.496094 52.703125 C 49.496094 53.109375 49.496094 53.753906 49.46875 54.640625 C 49.441406 55.503906 49.414062 56.148438 49.414062 56.578125 C 49.414062 57.089844 49.441406 57.84375 49.46875 58.867188 C 49.496094 59.890625 49.496094 60.644531 49.496094 61.152344 C 49.496094 61.449219 49.386719 61.613281 49.148438 61.636719 C 48.90625 61.664062 48.289062 61.664062 47.355469 61.664062 C 46.363281 61.664062 45.75 61.636719 45.535156 61.613281 C 45.292969 61.585938 45.1875 61.371094 45.1875 61.019531 C 45.1875 60.644531 45.1875 60.105469 45.210938 59.351562 C 45.238281 58.625 45.238281 58.058594 45.238281 57.710938 C 45.238281 56.257812 45.238281 55.261719 45.210938 54.640625 C 45.160156 53.699219 44.703125 53.214844 43.847656 53.242188 C 43.472656 53.242188 43.097656 53.402344 42.75 53.726562 C 42.375 54.023438 42.160156 54.371094 42.109375 54.777344 C 42.082031 55.097656 42.054688 56.09375 42.082031 57.738281 C 42.082031 58.113281 42.082031 58.679688 42.109375 59.457031 C 42.109375 60.210938 42.109375 60.804688 42.109375 61.207031 C 42.109375 61.449219 42 61.585938 41.785156 61.585938 L 38.148438 61.585938 C 37.90625 61.585938 37.796875 61.421875 37.796875 61.101562 C 37.796875 60.722656 37.796875 60.132812 37.824219 59.378906 C 37.851562 58.652344 37.851562 58.085938 37.851562 57.710938 C 37.851562 57.386719 37.851562 56.929688 37.824219 56.335938 C 37.824219 55.746094 37.824219 55.289062 37.824219 54.992188 C 37.824219 53.835938 37.398438 53.242188 36.515625 53.242188 C 36.140625 53.214844 35.765625 53.351562 35.363281 53.644531 C 34.90625 53.941406 34.695312 54.238281 34.695312 54.589844 C 34.667969 55.316406 34.667969 56.417969 34.695312 57.898438 C 34.695312 59.351562 34.695312 60.425781 34.695312 61.128906 C 34.695312 61.316406 34.695312 61.449219 34.667969 61.53125 C 34.613281 61.558594 34.480469 61.613281 34.265625 61.613281 C 33.917969 61.636719 33.355469 61.636719 32.578125 61.636719 C 32.070312 61.636719 31.507812 61.613281 30.867188 61.585938 C 30.679688 61.558594 30.570312 61.53125 30.546875 61.503906 C 30.492188 61.449219 30.464844 61.316406 30.464844 61.128906 C 30.464844 60.507812 30.464844 59.539062 30.464844 58.273438 C 30.464844 56.984375 30.464844 56.015625 30.464844 55.394531 C 30.464844 54.050781 30.382812 52.542969 30.199219 50.902344 C 30.171875 50.792969 30.171875 50.738281 30.171875 50.6875 C 30.117188 50.550781 30.171875 50.445312 30.304688 50.417969 Z M 54.742188 49.851562 C 55.117188 49.746094 55.4375 49.664062 55.703125 49.664062 C 55.839844 49.664062 55.917969 49.933594 55.945312 50.496094 C 55.945312 51.0625 55.972656 51.332031 56.027344 51.332031 C 56.105469 51.304688 56.214844 51.222656 56.320312 51.171875 C 57.042969 50.605469 57.605469 50.230469 58.035156 50.039062 C 58.621094 49.71875 59.292969 49.582031 60.042969 49.582031 C 60.765625 49.582031 61.40625 49.746094 62.023438 50.066406 C 62.664062 50.445312 63.09375 50.957031 63.304688 51.65625 C 63.707031 51.0625 64.296875 50.578125 65.046875 50.175781 C 65.796875 49.769531 66.519531 49.582031 67.214844 49.582031 C 68.257812 49.582031 69.113281 49.824219 69.757812 50.335938 C 70.507812 50.875 70.882812 51.683594 70.882812 52.703125 C 70.882812 53.109375 70.882812 53.753906 70.855469 54.640625 C 70.828125 55.503906 70.828125 56.148438 70.828125 56.578125 C 70.828125 57.089844 70.828125 57.84375 70.855469 58.867188 C 70.882812 59.890625 70.882812 60.644531 70.882812 61.152344 C 70.882812 61.449219 70.773438 61.613281 70.53125 61.636719 C 70.292969 61.664062 69.703125 61.664062 68.765625 61.664062 C 67.777344 61.664062 67.160156 61.636719 66.945312 61.613281 C 66.707031 61.585938 66.570312 61.371094 66.597656 61.019531 C 66.597656 60.644531 66.597656 60.105469 66.625 59.351562 C 66.652344 58.625 66.652344 58.058594 66.679688 57.710938 C 66.652344 56.257812 66.625 55.261719 66.597656 54.640625 C 66.570312 53.699219 66.117188 53.214844 65.261719 53.242188 C 64.886719 53.242188 64.484375 53.402344 64.109375 53.726562 C 63.734375 54.023438 63.546875 54.371094 63.519531 54.777344 C 63.492188 55.097656 63.46875 56.09375 63.46875 57.738281 C 63.46875 58.113281 63.492188 58.679688 63.519531 59.457031 C 63.519531 60.210938 63.519531 60.804688 63.519531 61.207031 C 63.519531 61.449219 63.414062 61.585938 63.199219 61.585938 L 59.53125 61.585938 C 59.320312 61.585938 59.210938 61.421875 59.238281 61.101562 C 59.210938 60.722656 59.210938 60.132812 59.238281 59.378906 C 59.265625 58.652344 59.265625 58.085938 59.265625 57.710938 C 59.238281 57.386719 59.238281 56.929688 59.238281 56.335938 C 59.210938 55.746094 59.210938 55.289062 59.238281 54.992188 C 59.238281 53.835938 58.808594 53.242188 57.925781 53.242188 C 57.550781 53.214844 57.175781 53.351562 56.777344 53.644531 C 56.320312 53.941406 56.105469 54.238281 56.105469 54.589844 C 56.105469 55.316406 56.105469 56.417969 56.105469 57.898438 C 56.105469 59.351562 56.105469 60.425781 56.105469 61.128906 C 56.105469 61.316406 56.078125 61.449219 56.054688 61.53125 C 56 61.558594 55.867188 61.613281 55.703125 61.613281 C 55.332031 61.636719 54.742188 61.636719 53.964844 61.636719 C 53.457031 61.636719 52.894531 61.613281 52.253906 61.585938 C 52.066406 61.558594 51.929688 61.53125 51.902344 61.503906 C 51.878906 61.449219 51.851562 61.316406 51.878906 61.128906 C 51.878906 60.507812 51.878906 59.539062 51.878906 58.273438 C 51.878906 56.984375 51.878906 56.015625 51.878906 55.394531 C 51.878906 54.050781 51.796875 52.542969 51.609375 50.902344 C 51.582031 50.792969 51.582031 50.738281 51.582031 50.6875 C 51.554688 50.550781 51.609375 50.472656 51.71875 50.417969 C 51.878906 50.335938 52.226562 50.28125 52.734375 50.230469 C 53.324219 50.175781 53.671875 50.121094 53.777344 50.121094 C 53.886719 50.09375 54.179688 50.011719 54.742188 49.851562 Z M 83.03125 51.199219 C 84.15625 52.328125 84.71875 53.808594 84.71875 55.636719 C 84.71875 57.496094 84.15625 58.972656 83.058594 60.105469 C 81.910156 61.261719 80.4375 61.828125 78.617188 61.855469 C 76.851562 61.855469 75.40625 61.289062 74.253906 60.132812 C 73.101562 59 72.539062 57.574219 72.566406 55.800781 C 72.566406 53.914062 73.101562 52.382812 74.199219 51.25 C 75.296875 50.09375 76.742188 49.503906 78.617188 49.503906 C 80.4375 49.503906 81.910156 50.039062 83.03125 51.199219 Z M 88.386719 44.335938 C 89.242188 44.253906 89.9375 44.226562 90.472656 44.226562 C 90.609375 44.226562 90.6875 44.363281 90.714844 44.605469 C 90.6875 44.925781 90.6875 45.359375 90.660156 45.894531 C 90.609375 46.515625 90.582031 46.917969 90.582031 47.132812 C 90.527344 47.914062 90.5 48.992188 90.5 50.390625 C 90.5 50.632812 90.582031 50.738281 90.714844 50.765625 C 90.792969 50.765625 90.875 50.738281 90.957031 50.6875 C 91.652344 49.90625 92.589844 49.527344 93.765625 49.527344 C 95.503906 49.527344 96.871094 50.121094 97.859375 51.332031 C 98.769531 52.410156 99.226562 53.886719 99.226562 55.71875 C 99.226562 57.386719 98.746094 58.8125 97.808594 59.941406 C 96.761719 61.152344 95.425781 61.746094 93.765625 61.746094 C 92.5625 61.746094 91.597656 61.394531 90.875 60.722656 C 90.820312 60.644531 90.769531 60.617188 90.742188 60.617188 C 90.660156 60.617188 90.609375 60.777344 90.527344 61.074219 C 90.445312 61.394531 90.367188 61.558594 90.257812 61.558594 C 90.125 61.585938 88.976562 61.636719 86.832031 61.636719 C 86.324219 61.613281 86.085938 61.503906 86.085938 61.316406 C 86.085938 61.289062 86.085938 61.234375 86.109375 61.152344 C 86.269531 59.863281 86.351562 57.441406 86.351562 53.863281 C 86.351562 50.417969 86.246094 47.429688 86.003906 44.902344 L 85.976562 44.765625 C 85.976562 44.632812 86.109375 44.550781 86.351562 44.550781 C 86.457031 44.523438 87.15625 44.46875 88.386719 44.335938 Z M 100.914062 50.09375 C 101.152344 50.066406 101.5 50.09375 101.984375 50.148438 C 102.4375 50.175781 102.757812 50.230469 103 50.230469 C 103.214844 50.230469 103.5625 50.203125 104.015625 50.175781 C 104.5 50.148438 104.847656 50.121094 105.085938 50.121094 C 105.273438 50.121094 105.382812 50.203125 105.382812 50.363281 C 105.382812 50.390625 105.382812 50.472656 105.382812 50.605469 C 105.195312 52.167969 105.085938 53.96875 105.085938 56.042969 C 105.085938 56.632812 105.085938 57.546875 105.113281 58.730469 C 105.140625 59.890625 105.140625 60.75 105.167969 61.34375 C 105.167969 61.503906 105.0625 61.585938 104.847656 61.636719 C 104.578125 61.664062 103.964844 61.691406 103.027344 61.691406 C 102.0625 61.691406 101.449219 61.664062 101.179688 61.636719 C 101.019531 61.613281 100.914062 61.558594 100.859375 61.503906 C 100.832031 61.476562 100.832031 61.34375 100.832031 61.128906 C 100.832031 60.589844 100.832031 59.753906 100.859375 58.652344 C 100.886719 57.496094 100.886719 56.660156 100.914062 56.09375 C 100.886719 53.808594 100.804688 52.003906 100.617188 50.660156 C 100.589844 50.523438 100.589844 50.445312 100.589844 50.417969 C 100.589844 50.175781 100.699219 50.09375 100.914062 50.09375 Z M 107.230469 44.902344 C 107.253906 44.710938 107.363281 44.605469 107.578125 44.605469 L 111.832031 44.605469 C 112.046875 44.632812 112.152344 44.710938 112.128906 44.902344 L 112.128906 45.117188 C 111.886719 48.585938 111.777344 51.65625 111.777344 54.347656 C 111.777344 56.527344 111.777344 58.222656 111.804688 59.40625 C 111.804688 59.59375 111.804688 59.917969 111.832031 60.375 C 111.859375 60.777344 111.859375 61.101562 111.886719 61.34375 C 111.859375 61.503906 111.753906 61.585938 111.566406 61.636719 C 111.191406 61.691406 110.546875 61.71875 109.636719 61.71875 C 108.648438 61.71875 108.03125 61.691406 107.738281 61.636719 C 107.550781 61.613281 107.46875 61.503906 107.441406 61.316406 C 107.441406 61.289062 107.441406 61.101562 107.441406 60.777344 C 107.441406 60.050781 107.441406 58.972656 107.46875 57.574219 C 107.496094 56.121094 107.496094 55.074219 107.523438 54.371094 L 107.523438 49.746094 C 107.496094 47.96875 107.417969 46.433594 107.230469 45.167969 C 107.253906 45.007812 107.230469 44.925781 107.230469 44.902344 Z M 116.355469 50.230469 C 116.597656 50.230469 116.945312 50.203125 117.398438 50.175781 C 117.855469 50.148438 118.203125 50.121094 118.445312 50.121094 C 118.632812 50.121094 118.738281 50.203125 118.738281 50.363281 C 118.738281 50.390625 118.738281 50.472656 118.710938 50.605469 C 118.523438 52.167969 118.445312 53.96875 118.445312 56.042969 C 118.445312 56.632812 118.46875 57.546875 118.496094 58.730469 C 118.523438 59.890625 118.523438 60.75 118.523438 61.34375 C 118.523438 61.503906 118.417969 61.585938 118.203125 61.636719 C 117.933594 61.664062 117.320312 61.691406 116.382812 61.691406 C 115.417969 61.691406 114.804688 61.664062 114.535156 61.636719 C 114.375 61.613281 114.269531 61.558594 114.214844 61.503906 C 114.1875 61.476562 114.1875 61.34375 114.1875 61.128906 C 114.1875 60.589844 114.214844 59.753906 114.242188 58.652344 C 114.269531 57.496094 114.269531 56.660156 114.269531 56.09375 C 114.242188 53.808594 114.160156 52.003906 113.972656 50.660156 C 113.945312 50.523438 113.945312 50.445312 113.972656 50.417969 C 113.945312 50.253906 114.054688 50.148438 114.269531 50.148438 C 114.507812 50.121094 114.855469 50.148438 115.3125 50.203125 C 115.792969 50.203125 116.140625 50.230469 116.355469 50.230469 Z M 92.640625 57.980469 C 93.3125 57.980469 93.871094 57.738281 94.273438 57.277344 C 94.648438 56.820312 94.835938 56.257812 94.835938 55.558594 C 94.835938 54.882812 94.621094 54.320312 94.222656 53.863281 C 93.792969 53.402344 93.257812 53.160156 92.613281 53.1875 C 91.945312 53.160156 91.410156 53.402344 91.007812 53.863281 C 90.632812 54.320312 90.445312 54.882812 90.445312 55.582031 C 90.421875 56.285156 90.609375 56.847656 91.007812 57.304688 C 91.410156 57.738281 91.945312 57.980469 92.640625 57.980469 Z M 80.195312 53.96875 C 79.792969 53.457031 79.285156 53.214844 78.671875 53.242188 C 78.027344 53.214844 77.519531 53.457031 77.089844 53.96875 C 76.714844 54.425781 76.5 54.992188 76.5 55.636719 C 76.5 56.308594 76.6875 56.875 77.089844 57.332031 C 77.492188 57.816406 78.027344 58.085938 78.671875 58.085938 C 79.285156 58.058594 79.792969 57.816406 80.195312 57.332031 C 80.570312 56.875 80.785156 56.308594 80.8125 55.636719 C 80.785156 54.992188 80.570312 54.453125 80.195312 53.96875 Z M 80.195312 53.96875 " fill-opacity="1" fill-rule="evenodd"/><path fill="#c12400" d="M 104.820312 43.449219 C 105.355469 43.984375 105.597656 44.632812 105.597656 45.410156 C 105.597656 46.136719 105.328125 46.785156 104.820312 47.324219 C 104.3125 47.859375 103.667969 48.128906 102.894531 48.128906 C 102.144531 48.128906 101.5 47.859375 100.9375 47.324219 C 100.402344 46.785156 100.164062 46.164062 100.164062 45.410156 C 100.164062 44.632812 100.429688 43.984375 100.9375 43.449219 C 101.472656 42.910156 102.117188 42.640625 102.894531 42.640625 C 103.640625 42.613281 104.285156 42.882812 104.820312 43.449219 Z M 104.820312 43.449219 " fill-opacity="1" fill-rule="evenodd"/><path fill="#c12400" d="M 118.445312 43.449219 C 118.980469 43.984375 119.21875 44.632812 119.21875 45.410156 C 119.21875 46.136719 118.953125 46.785156 118.445312 47.324219 C 117.910156 47.859375 117.292969 48.128906 116.515625 48.128906 C 115.765625 48.128906 115.125 47.859375 114.589844 47.324219 C 114.054688 46.785156 113.785156 46.164062 113.8125 45.410156 C 113.785156 44.632812 114.054688 43.984375 114.589844 43.449219 C 115.125 42.910156 115.742188 42.640625 116.515625 42.640625 C 117.292969 42.613281 117.933594 42.882812 118.445312 43.449219 Z M 118.445312 43.449219 " fill-opacity="1" fill-rule="evenodd"/><path fill="#2b6482" d="M 32.367188 47.242188 C 32.367188 47.132812 32.3125 47.054688 32.230469 46.972656 C 28.511719 43.472656 24.953125 39.734375 21.605469 35.699219 C 21.578125 35.617188 21.257812 35.238281 20.640625 34.539062 C 20 35.238281 19.757812 35.617188 19.730469 35.699219 C 16.386719 39.707031 12.851562 43.472656 9.132812 46.945312 C 9.050781 47.027344 9.027344 47.105469 9.027344 47.214844 C 9 47.296875 9 47.375 9.027344 47.457031 C 9.027344 47.484375 9.027344 47.484375 9.050781 47.511719 C 9.078125 47.589844 9.132812 47.644531 9.238281 47.726562 C 9.320312 47.753906 9.398438 47.753906 9.507812 47.753906 L 12.398438 47.753906 C 12.425781 47.753906 12.425781 48.101562 12.453125 48.292969 C 12.960938 52.570312 13.46875 56.875 13.976562 61.152344 C 13.976562 61.261719 14.03125 61.613281 14.136719 61.691406 C 14.21875 61.773438 14.324219 62.042969 14.460938 62.042969 C 14.96875 62.042969 16.414062 62.042969 18.152344 62.042969 L 18.152344 54.75 C 18.152344 54.371094 17.777344 54.480469 17.777344 54.480469 C 17.242188 54.480469 16.789062 54.210938 16.789062 53.671875 C 16.789062 53.136719 17.214844 52.972656 17.722656 52.972656 L 23.746094 52.972656 C 24.28125 52.972656 24.628906 53.136719 24.628906 53.671875 C 24.628906 54.210938 24.09375 54.371094 23.558594 54.371094 C 23.558594 54.371094 23.050781 54.347656 23.050781 54.722656 L 23.050781 62.015625 C 24.789062 62.015625 26.398438 62.015625 26.90625 62.015625 C 27.039062 62.015625 27.144531 61.746094 27.226562 61.664062 C 27.332031 61.558594 27.359375 61.289062 27.359375 61.179688 C 27.867188 56.902344 28.378906 52.597656 28.886719 48.316406 C 28.914062 48.128906 28.914062 47.753906 28.9375 47.753906 L 31.910156 47.753906 C 32.015625 47.753906 32.097656 47.753906 32.179688 47.726562 C 32.285156 47.644531 32.339844 47.617188 32.367188 47.539062 C 32.390625 47.511719 32.390625 47.484375 32.390625 47.457031 C 32.390625 47.402344 32.390625 47.324219 32.367188 47.242188 Z M 19.707031 50.445312 C 19.089844 50.445312 18.582031 49.933594 18.582031 49.285156 C 18.582031 48.667969 19.089844 48.128906 19.707031 48.128906 C 20.320312 48.128906 20.855469 48.640625 20.855469 49.285156 C 20.855469 49.933594 20.347656 50.445312 19.707031 50.445312 Z M 21.925781 51.949219 C 21.523438 51.949219 21.203125 51.628906 21.203125 51.222656 C 21.203125 50.820312 21.523438 50.496094 21.925781 50.496094 C 22.328125 50.496094 22.648438 50.820312 22.648438 51.222656 C 22.648438 51.601562 22.328125 51.949219 21.925781 51.949219 Z M 22.542969 46.515625 C 22.007812 47.054688 21.363281 47.324219 20.589844 47.324219 C 19.8125 47.324219 19.167969 47.054688 18.609375 46.515625 C 18.074219 45.949219 17.804688 45.304688 17.804688 44.523438 C 17.804688 43.742188 18.074219 43.097656 18.609375 42.558594 C 19.167969 41.996094 19.8125 41.726562 20.589844 41.726562 C 21.363281 41.726562 22.007812 41.996094 22.542969 42.558594 C 23.105469 43.097656 23.371094 43.742188 23.371094 44.523438 C 23.371094 45.304688 23.105469 45.949219 22.542969 46.515625 Z M 22.542969 46.515625 " fill-opacity="1" fill-rule="nonzero"/><path fill="#c12400" d="M 48.15625 19.308594 C 40.714844 19.308594 34.773438 25.363281 34.695312 32.84375 C 34.640625 37.984375 37.878906 40.945312 38.039062 41.753906 C 38.601562 45.0625 34.398438 45.167969 34.398438 45.167969 C 34.398438 45.167969 37.15625 46.972656 40.769531 45.332031 C 42.214844 44.683594 44.675781 46.300781 48.183594 46.355469 C 55.625 46.488281 61.648438 40.300781 61.648438 32.816406 C 61.621094 25.363281 55.597656 19.308594 48.15625 19.308594 Z M 48.15625 19.308594 " fill-opacity="1" fill-rule="nonzero"/><path fill="#ffffff" d="M 38.601562 37.445312 L 38.601562 28.566406 L 39.726562 28.566406 L 39.726562 36.316406 L 42.457031 36.316406 L 42.457031 37.445312 Z M 38.601562 37.445312 " fill-opacity="1" fill-rule="nonzero"/><path fill="#ffffff" d="M 44.277344 37.445312 L 43.125 37.445312 L 45.160156 28.566406 L 46.070312 28.566406 L 48.128906 37.445312 L 46.953125 37.445312 L 46.390625 34.972656 L 44.863281 34.972656 Z M 45.585938 31.660156 L 45.078125 33.839844 L 46.097656 33.839844 Z M 45.585938 31.660156 " fill-opacity="1" fill-rule="nonzero"/><path fill="#ffffff" d="M 52.117188 33.007812 C 52.171875 33.058594 52.199219 33.085938 52.226562 33.113281 C 52.574219 33.542969 52.734375 34.136719 52.734375 34.945312 C 52.734375 35.75 52.574219 36.371094 52.226562 36.773438 C 51.878906 37.230469 51.316406 37.445312 50.566406 37.445312 L 48.878906 37.445312 L 48.878906 28.59375 L 50.59375 28.59375 C 51.34375 28.59375 51.902344 28.808594 52.253906 29.265625 C 52.601562 29.667969 52.761719 30.261719 52.761719 31.097656 C 52.761719 31.902344 52.601562 32.496094 52.253906 32.925781 C 52.199219 32.925781 52.171875 32.953125 52.117188 33.007812 Z M 50.003906 32.441406 L 50.566406 32.441406 C 50.832031 32.441406 50.996094 32.414062 51.128906 32.359375 C 51.234375 32.308594 51.316406 32.253906 51.367188 32.199219 C 51.53125 32.011719 51.609375 31.632812 51.609375 31.097656 C 51.609375 30.773438 51.582031 30.53125 51.53125 30.367188 C 51.476562 30.179688 51.394531 30.046875 51.316406 29.964844 C 51.234375 29.882812 51.101562 29.804688 50.996094 29.804688 C 50.859375 29.777344 50.726562 29.777344 50.59375 29.777344 L 50.03125 29.777344 L 50.03125 32.441406 Z M 50.566406 36.316406 C 50.699219 36.316406 50.832031 36.316406 50.96875 36.289062 C 51.101562 36.261719 51.207031 36.207031 51.289062 36.128906 C 51.367188 36.046875 51.449219 35.914062 51.503906 35.722656 C 51.554688 35.535156 51.582031 35.292969 51.582031 34.972656 C 51.582031 34.648438 51.554688 34.40625 51.503906 34.21875 C 51.449219 34.027344 51.367188 33.894531 51.289062 33.8125 C 51.207031 33.734375 51.101562 33.652344 50.96875 33.652344 C 50.832031 33.625 50.699219 33.625 50.566406 33.625 L 50.003906 33.625 L 50.003906 36.371094 L 50.566406 36.371094 Z M 50.566406 36.316406 " fill-opacity="1" fill-rule="nonzero"/><path fill="#ffffff" d="M 55.730469 37.445312 C 55.035156 37.445312 54.5 37.230469 54.152344 36.773438 C 53.804688 36.34375 53.644531 35.75 53.644531 34.945312 L 53.644531 34.378906 L 54.769531 34.378906 L 54.769531 34.945312 C 54.769531 35.457031 54.847656 35.832031 55.035156 36.074219 C 55.0625 36.128906 55.144531 36.183594 55.25 36.234375 C 55.355469 36.289062 55.519531 36.316406 55.730469 36.316406 C 55.945312 36.316406 56.105469 36.261719 56.242188 36.183594 C 56.375 36.101562 56.453125 35.964844 56.535156 35.832031 C 56.613281 35.699219 56.640625 35.5625 56.667969 35.402344 C 56.695312 35.238281 56.695312 35.105469 56.695312 34.996094 C 56.695312 34.78125 56.667969 34.621094 56.589844 34.460938 C 56.535156 34.324219 56.425781 34.191406 56.347656 34.082031 C 56.242188 33.976562 56.132812 33.894531 56 33.839844 C 55.867188 33.761719 55.730469 33.707031 55.625 33.652344 L 55.410156 33.542969 C 55.277344 33.492188 55.117188 33.410156 54.929688 33.300781 C 54.742188 33.195312 54.527344 33.058594 54.339844 32.871094 C 53.859375 32.414062 53.617188 31.824219 53.617188 31.097656 C 53.617188 30.71875 53.671875 30.367188 53.777344 30.074219 C 53.886719 29.75 54.019531 29.480469 54.207031 29.265625 C 54.394531 29.050781 54.609375 28.863281 54.875 28.753906 C 55.144531 28.621094 55.410156 28.566406 55.730469 28.566406 C 56.160156 28.566406 56.507812 28.648438 56.75 28.808594 C 56.988281 28.96875 57.175781 29.105469 57.3125 29.265625 C 57.660156 29.695312 57.820312 30.316406 57.820312 31.097656 L 57.820312 31.660156 L 56.695312 31.660156 L 56.695312 31.097656 C 56.695312 30.746094 56.667969 30.476562 56.589844 30.289062 C 56.507812 30.101562 56.425781 29.964844 56.320312 29.882812 C 56.214844 29.804688 56.105469 29.75 56 29.722656 C 55.890625 29.695312 55.785156 29.695312 55.703125 29.695312 C 55.464844 29.695312 55.304688 29.75 55.167969 29.859375 C 55.035156 29.964844 54.957031 30.101562 54.875 30.261719 C 54.796875 30.421875 54.769531 30.585938 54.742188 30.71875 C 54.714844 30.878906 54.714844 30.988281 54.714844 31.070312 C 54.714844 31.285156 54.742188 31.445312 54.820312 31.605469 C 54.875 31.769531 54.980469 31.875 55.0625 31.984375 C 55.167969 32.089844 55.277344 32.171875 55.410156 32.253906 C 55.542969 32.332031 55.679688 32.386719 55.8125 32.441406 L 56 32.523438 C 56.105469 32.574219 56.265625 32.628906 56.453125 32.738281 C 56.640625 32.816406 56.855469 32.980469 57.042969 33.140625 C 57.523438 33.597656 57.792969 34.191406 57.792969 34.917969 C 57.792969 35.589844 57.632812 36.15625 57.285156 36.613281 C 56.9375 37.175781 56.402344 37.445312 55.730469 37.445312 Z M 55.730469 37.445312 " fill-opacity="1" fill-rule="nonzero"/></svg>