<svg xmlns="http://www.w3.org/2000/svg" xmlns:xlink="http://www.w3.org/1999/xlink" width="220" zoomAndPan="magnify" viewBox="0 0 165 82.499998" height="110" preserveAspectRatio="xMidYMid meet" version="1.0"><defs><clipPath id="id1"><path d="M 0.496094 0 L 164.503906 0 L 164.503906 82.003906 L 0.496094 82.003906 Z M 0.496094 0 " clip-rule="nonzero"/></clipPath><clipPath id="id2"><path d="M 8.699219 25.265625 L 53 25.265625 L 53 56.574219 L 8.699219 56.574219 Z M 8.699219 25.265625 " clip-rule="nonzero"/></clipPath><clipPath id="id3"><path d="M 146 35 L 156.300781 35 L 156.300781 49 L 146 49 Z M 146 35 " clip-rule="nonzero"/></clipPath></defs><g clip-path="url(#id1)"><path fill="#ffffff" d="M 0.496094 0 L 164.503906 0 L 164.503906 89.457031 L 0.496094 89.457031 Z M 0.496094 0 " fill-opacity="1" fill-rule="nonzero"/><path fill="#ffffff" d="M 0.496094 0 L 164.503906 0 L 164.503906 82.003906 L 0.496094 82.003906 Z M 0.496094 0 " fill-opacity="1" fill-rule="nonzero"/><path fill="#ffffff" d="M 0.496094 0 L 164.503906 0 L 164.503906 82.003906 L 0.496094 82.003906 Z M 0.496094 0 " fill-opacity="1" fill-rule="nonzero"/><path fill="#ffffff" d="M 0.496094 0 L 164.503906 0 L 164.503906 82.003906 L 0.496094 82.003906 Z M 0.496094 0 " fill-opacity="1" fill-rule="nonzero"/></g><g clip-path="url(#id2)"><path fill="#7ab317" d="M 52.390625 37.003906 L 43.765625 26.117188 C 43.5625 25.871094 43.179688 25.679688 42.863281 25.679688 L 18.65625 25.679688 C 18.335938 25.679688 17.945312 25.871094 17.746094 26.117188 L 9.125 37.003906 C 8.890625 37.296875 8.929688 37.730469 9.214844 37.96875 L 30.261719 55.984375 C 30.394531 56.097656 30.574219 56.15625 30.753906 56.15625 C 30.9375 56.15625 31.113281 56.097656 31.25 55.984375 L 52.300781 37.96875 C 52.582031 37.730469 52.621094 37.296875 52.390625 37.003906 Z M 24.378906 38.929688 C 24.5625 38.929688 24.847656 39.039062 24.988281 39.164062 L 30.265625 43.945312 C 30.53125 44.183594 30.976562 44.1875 31.242188 43.945312 L 36.523438 39.164062 C 36.660156 39.039062 36.953125 38.929688 37.136719 38.929688 L 45.449219 38.933594 L 30.9375 51.355469 C 30.847656 51.429688 30.667969 51.429688 30.578125 51.355469 L 16.0625 38.929688 Z M 37.398438 33.347656 L 30.925781 39.214844 C 30.835938 39.292969 30.679688 39.292969 30.589844 39.214844 L 24.117188 33.34375 C 23.988281 33.230469 23.824219 33.171875 23.652344 33.171875 C 23.460938 33.171875 23.277344 33.246094 23.148438 33.386719 L 21.707031 34.960938 C 21.589844 35.09375 21.320312 35.210938 21.136719 35.210938 L 15.296875 35.207031 L 19.703125 29.652344 C 19.808594 29.515625 20.058594 29.394531 20.230469 29.394531 L 41.28125 29.394531 C 41.453125 29.394531 41.703125 29.515625 41.804688 29.648438 L 46.210938 35.210938 L 40.367188 35.210938 C 40.199219 35.210938 39.929688 35.09375 39.800781 34.960938 L 38.363281 33.386719 C 38.117188 33.125 37.660156 33.097656 37.398438 33.347656 Z M 37.398438 33.347656 " fill-opacity="1" fill-rule="nonzero"/></g><path fill="#1c1c1c" d="M 70.894531 36.410156 L 76.902344 29.519531 L 80.945312 29.519531 L 80.945312 48.105469 L 76.292969 48.105469 L 76.292969 36.503906 L 71.242188 42.332031 L 70.546875 42.332031 L 65.5 36.503906 L 65.5 48.105469 L 60.84375 48.105469 L 60.84375 29.519531 L 64.886719 29.519531 Z M 70.894531 36.410156 " fill-opacity="1" fill-rule="nonzero"/><path fill="#1c1c1c" d="M 103.378906 29.519531 L 94.742188 48.34375 L 92.726562 48.34375 L 83.671875 29.519531 L 88.742188 29.519531 L 93.6875 40.140625 L 98.367188 29.519531 Z M 103.378906 29.519531 " fill-opacity="1" fill-rule="nonzero"/><path fill="#1c1c1c" d="M 116.390625 45.800781 L 116.390625 48.105469 L 106.753906 48.105469 L 106.753906 35.53125 L 109.902344 35.53125 L 109.902344 45.800781 Z M 116.390625 45.800781 " fill-opacity="1" fill-rule="nonzero"/><path fill="#1c1c1c" d="M 126.011719 35.53125 L 131.625 48.105469 L 128.242188 48.105469 L 127.199219 45.621094 L 121.539062 45.621094 L 120.59375 48.105469 L 117.257812 48.105469 L 122.363281 35.53125 Z M 126.277344 43.425781 L 124.230469 38.539062 L 122.371094 43.425781 Z M 126.277344 43.425781 " fill-opacity="1" fill-rule="nonzero"/><path fill="#1c1c1c" d="M 133.445312 35.53125 L 138.90625 35.53125 C 140.210938 35.53125 141.234375 35.84375 141.976562 36.464844 C 142.726562 37.09375 143.097656 37.828125 143.097656 38.679688 C 143.097656 39.769531 142.519531 40.605469 141.367188 41.1875 C 142.238281 41.417969 142.902344 41.820312 143.363281 42.394531 C 143.824219 42.972656 144.054688 43.644531 144.054688 44.414062 C 144.054688 45.503906 143.675781 46.394531 142.921875 47.078125 C 142.167969 47.761719 141.058594 48.105469 139.59375 48.105469 L 133.445312 48.105469 Z M 136.589844 37.835938 L 136.589844 40.527344 L 138.238281 40.527344 C 138.746094 40.527344 139.140625 40.398438 139.421875 40.140625 C 139.703125 39.882812 139.847656 39.558594 139.847656 39.167969 C 139.847656 38.785156 139.703125 38.464844 139.421875 38.214844 C 139.140625 37.960938 138.746094 37.835938 138.238281 37.835938 Z M 136.589844 42.832031 L 136.589844 45.800781 L 138.363281 45.800781 C 139.203125 45.800781 139.804688 45.6875 140.171875 45.453125 C 140.542969 45.222656 140.726562 44.824219 140.726562 44.253906 C 140.726562 43.816406 140.550781 43.46875 140.199219 43.214844 C 139.851562 42.957031 139.382812 42.832031 138.800781 42.832031 Z M 136.589844 42.832031 " fill-opacity="1" fill-rule="nonzero"/><g clip-path="url(#id3)"><path fill="#1c1c1c" d="M 155.457031 36.34375 L 155.457031 38.800781 C 153.78125 38.050781 152.445312 37.675781 151.449219 37.675781 C 150.882812 37.675781 150.429688 37.769531 150.097656 37.957031 C 149.765625 38.148438 149.59375 38.398438 149.59375 38.710938 C 149.59375 38.949219 149.714844 39.179688 149.957031 39.394531 C 150.199219 39.609375 150.785156 39.886719 151.71875 40.230469 C 152.65625 40.570312 153.402344 40.890625 153.960938 41.183594 C 154.527344 41.480469 155.011719 41.890625 155.417969 42.425781 C 155.824219 42.960938 156.027344 43.636719 156.027344 44.453125 C 156.027344 45.617188 155.582031 46.542969 154.691406 47.230469 C 153.804688 47.921875 152.632812 48.265625 151.175781 48.265625 C 149.613281 48.265625 148.089844 47.863281 146.617188 47.050781 L 146.617188 44.34375 C 147.460938 44.90625 148.210938 45.320312 148.863281 45.578125 C 149.515625 45.832031 150.203125 45.964844 150.933594 45.964844 C 152.171875 45.964844 152.789062 45.578125 152.789062 44.804688 C 152.789062 44.539062 152.664062 44.292969 152.417969 44.058594 C 152.171875 43.820312 151.574219 43.539062 150.628906 43.203125 C 149.683594 42.867188 148.9375 42.554688 148.386719 42.265625 C 147.835938 41.976562 147.359375 41.566406 146.957031 41.03125 C 146.558594 40.5 146.355469 39.816406 146.355469 38.980469 C 146.355469 37.898438 146.792969 37.027344 147.667969 36.363281 C 148.542969 35.703125 149.710938 35.371094 151.175781 35.371094 C 152.527344 35.371094 153.957031 35.695312 155.457031 36.34375 Z M 155.457031 36.34375 " fill-opacity="1" fill-rule="nonzero"/></g></svg>