<svg xmlns="http://www.w3.org/2000/svg" xmlns:xlink="http://www.w3.org/1999/xlink" width="220" zoomAndPan="magnify" viewBox="0 0 165 82.499998" height="110" preserveAspectRatio="xMidYMid meet" version="1.0"><defs><clipPath id="75df014922"><path d="M 0.496094 0 L 164.503906 0 L 164.503906 82.003906 L 0.496094 82.003906 Z M 0.496094 0 " clip-rule="nonzero"/></clipPath></defs><g clip-path="url(#75df014922)"><path fill="#ffffff" d="M 0.496094 0 L 164.503906 0 L 164.503906 82.003906 L 0.496094 82.003906 Z M 0.496094 0 " fill-opacity="1" fill-rule="nonzero"/><path fill="#ffffff" d="M 0.496094 0 L 164.503906 0 L 164.503906 82.003906 L 0.496094 82.003906 Z M 0.496094 0 " fill-opacity="1" fill-rule="nonzero"/></g><path fill="#23192d" d="M 82.042969 35.199219 C 80.917969 35.199219 79.894531 35.457031 78.964844 35.96875 C 78.046875 36.480469 77.324219 37.183594 76.792969 38.074219 C 76.265625 38.96875 76 39.964844 76 41.0625 C 76 42.175781 76.257812 43.183594 76.777344 44.085938 C 77.296875 44.988281 78.007812 45.703125 78.914062 46.226562 C 79.824219 46.738281 80.832031 46.992188 81.945312 46.992188 C 82.765625 46.992188 83.582031 46.808594 84.390625 46.4375 C 85.214844 46.066406 85.925781 45.566406 86.53125 44.933594 L 85.023438 43.285156 C 84.613281 43.699219 84.144531 44.03125 83.613281 44.28125 C 83.097656 44.519531 82.582031 44.640625 82.074219 44.640625 C 81.4375 44.640625 80.855469 44.484375 80.324219 44.167969 C 79.796875 43.839844 79.378906 43.40625 79.078125 42.859375 C 78.773438 42.304688 78.625 41.695312 78.625 41.03125 C 78.625 40.367188 78.773438 39.761719 79.078125 39.21875 C 79.378906 38.675781 79.796875 38.246094 80.324219 37.929688 C 80.855469 37.613281 81.4375 37.453125 82.074219 37.453125 C 82.605469 37.453125 83.128906 37.589844 83.648438 37.863281 C 84.175781 38.125 84.636719 38.488281 85.023438 38.957031 L 86.515625 37.113281 C 85.953125 36.523438 85.273438 36.0625 84.472656 35.722656 C 83.675781 35.375 82.863281 35.199219 82.042969 35.199219 Z M 152.550781 35.25 C 151.753906 35.25 151.050781 35.375 150.445312 35.625 C 149.839844 35.875 149.371094 36.234375 149.035156 36.703125 C 148.699219 37.171875 148.53125 37.710938 148.53125 38.320312 C 148.53125 39.015625 148.695312 39.578125 149.019531 40.003906 C 149.355469 40.425781 149.757812 40.75 150.234375 40.964844 C 150.710938 41.183594 151.324219 41.40625 152.082031 41.636719 C 152.699219 41.820312 153.183594 41.988281 153.539062 42.140625 C 153.90625 42.292969 154.210938 42.5 154.445312 42.761719 C 154.683594 43.023438 154.804688 43.355469 154.804688 43.757812 C 154.804688 44.269531 154.582031 44.679688 154.140625 44.984375 C 153.707031 45.277344 153.113281 45.425781 152.355469 45.425781 C 151.71875 45.425781 151.0625 45.285156 150.378906 45 C 149.710938 44.707031 149.105469 44.292969 148.566406 43.757812 L 147.867188 45.113281 C 148.441406 45.660156 149.121094 46.09375 149.910156 46.421875 C 150.699219 46.746094 151.507812 46.910156 152.339844 46.910156 C 153.160156 46.910156 153.886719 46.78125 154.511719 46.519531 C 155.148438 46.246094 155.640625 45.867188 155.988281 45.375 C 156.34375 44.886719 156.519531 44.3125 156.519531 43.660156 C 156.519531 42.953125 156.355469 42.386719 156.019531 41.960938 C 155.683594 41.527344 155.277344 41.199219 154.804688 40.984375 C 154.328125 40.765625 153.707031 40.535156 152.941406 40.296875 C 152.324219 40.101562 151.84375 39.933594 151.5 39.789062 C 151.152344 39.636719 150.859375 39.4375 150.625 39.1875 C 150.386719 38.925781 150.265625 38.59375 150.265625 38.191406 C 150.265625 37.742188 150.460938 37.394531 150.851562 37.144531 C 151.25 36.882812 151.777344 36.753906 152.4375 36.753906 C 152.914062 36.753906 153.433594 36.839844 153.992188 37.015625 C 154.566406 37.175781 155.117188 37.425781 155.644531 37.765625 L 156.292969 36.359375 C 155.785156 36.023438 155.203125 35.757812 154.542969 35.558594 C 153.894531 35.351562 153.230469 35.25 152.550781 35.25 Z M 131.160156 35.28125 C 130.070312 35.28125 129.070312 35.539062 128.160156 36.050781 C 127.253906 36.5625 126.535156 37.265625 126.007812 38.15625 C 125.488281 39.039062 125.230469 40.011719 125.230469 41.082031 C 125.230469 42.160156 125.488281 43.144531 126.007812 44.035156 C 126.527344 44.929688 127.234375 45.636719 128.128906 46.160156 C 129.027344 46.671875 130.015625 46.925781 131.09375 46.925781 C 131.871094 46.925781 132.640625 46.769531 133.394531 46.453125 C 134.152344 46.128906 134.816406 45.679688 135.386719 45.113281 L 134.449219 44.085938 C 134.003906 44.511719 133.5 44.847656 132.925781 45.097656 C 132.351562 45.339844 131.769531 45.457031 131.175781 45.457031 C 130.375 45.457031 129.640625 45.261719 128.972656 44.871094 C 128.300781 44.476562 127.773438 43.945312 127.382812 43.269531 C 126.996094 42.59375 126.800781 41.859375 126.800781 41.0625 C 126.800781 40.257812 126.996094 39.523438 127.382812 38.859375 C 127.773438 38.183594 128.300781 37.652344 128.972656 37.257812 C 129.640625 36.867188 130.375 36.671875 131.175781 36.671875 C 131.78125 36.671875 132.371094 36.800781 132.941406 37.0625 C 133.515625 37.3125 134.015625 37.667969 134.449219 38.125 L 135.371094 36.996094 C 134.832031 36.453125 134.191406 36.035156 133.445312 35.738281 C 132.710938 35.433594 131.949219 35.28125 131.160156 35.28125 Z M 42.25 35.378906 L 42.25 46.8125 L 44.8125 46.8125 L 44.8125 43.546875 L 47.421875 43.546875 L 49.21875 46.8125 L 52.117188 46.8125 L 49.703125 43.039062 C 50.394531 42.714844 50.917969 42.242188 51.277344 41.621094 C 51.644531 40.988281 51.828125 40.230469 51.828125 39.347656 C 51.828125 38.085938 51.421875 37.113281 50.613281 36.425781 C 49.800781 35.730469 48.65625 35.378906 47.175781 35.378906 Z M 53.992188 35.378906 L 53.992188 46.8125 L 62.808594 46.8125 L 62.808594 44.671875 L 56.550781 44.671875 L 56.550781 42.140625 L 62.011719 42.140625 L 62.011719 40.003906 L 56.550781 40.003906 L 56.550781 37.519531 L 62.628906 37.519531 L 62.628906 35.378906 Z M 68.445312 35.378906 L 63.519531 46.8125 L 66.160156 46.8125 L 67.050781 44.59375 L 72.300781 44.59375 L 73.191406 46.8125 L 75.929688 46.8125 L 71.085938 35.378906 Z M 86.925781 35.378906 L 86.925781 37.570312 L 90.378906 37.570312 L 90.378906 46.8125 L 92.9375 46.8125 L 92.9375 37.570312 L 96.40625 37.570312 L 96.40625 35.378906 Z M 98.164062 35.378906 L 98.164062 46.8125 L 103.089844 46.8125 C 104.375 46.8125 105.378906 46.539062 106.101562 45.996094 C 106.835938 45.441406 107.203125 44.671875 107.203125 43.695312 C 107.203125 42.921875 106.976562 42.277344 106.523438 41.765625 C 106.082031 41.242188 105.464844 40.921875 104.675781 40.804688 C 105.3125 40.652344 105.816406 40.351562 106.183594 39.90625 C 106.550781 39.449219 106.734375 38.890625 106.734375 38.238281 C 106.734375 37.347656 106.398438 36.648438 105.730469 36.148438 C 105.070312 35.636719 104.164062 35.378906 103.007812 35.378906 Z M 109.714844 35.378906 L 109.714844 46.8125 L 111.269531 46.8125 L 111.269531 43.253906 L 114.152344 43.253906 C 114.316406 43.253906 114.527344 43.242188 114.785156 43.21875 L 117.039062 46.8125 L 118.820312 46.8125 L 116.179688 42.941406 C 116.980469 42.660156 117.589844 42.203125 118.011719 41.570312 C 118.441406 40.9375 118.660156 40.160156 118.660156 39.234375 C 118.660156 38.003906 118.265625 37.058594 117.476562 36.394531 C 116.699219 35.71875 115.589844 35.378906 114.152344 35.378906 Z M 121.421875 35.378906 L 121.421875 46.8125 L 122.980469 46.8125 L 122.980469 35.378906 Z M 137.5625 35.378906 L 137.5625 46.8125 L 139.117188 46.8125 L 139.117188 43.824219 L 141.210938 41.539062 L 145.195312 46.8125 L 147.074219 46.8125 L 142.292969 40.3125 L 146.78125 35.378906 L 144.917969 35.378906 L 139.117188 41.800781 L 139.117188 35.378906 Z M 111.269531 36.800781 L 114.152344 36.800781 C 115.125 36.800781 115.871094 37.015625 116.390625 37.4375 C 116.910156 37.851562 117.167969 38.46875 117.167969 39.285156 C 117.167969 40.121094 116.910156 40.757812 116.390625 41.195312 C 115.871094 41.621094 115.125 41.832031 114.152344 41.832031 L 111.269531 41.832031 Z M 99.71875 36.816406 L 102.925781 36.816406 C 103.628906 36.808594 104.167969 36.949219 104.546875 37.242188 C 104.9375 37.535156 105.132812 37.957031 105.132812 38.5 C 105.132812 39.054688 104.9375 39.484375 104.546875 39.789062 C 104.167969 40.085938 103.628906 40.230469 102.925781 40.230469 L 99.71875 40.230469 Z M 44.8125 37.519531 L 47.175781 37.519531 C 47.890625 37.519531 48.433594 37.683594 48.8125 38.011719 C 49.203125 38.324219 49.398438 38.800781 49.398438 39.429688 C 49.398438 40.074219 49.203125 40.5625 48.8125 40.902344 C 48.433594 41.226562 47.890625 41.390625 47.175781 41.390625 L 44.8125 41.390625 Z M 69.691406 38.074219 L 71.476562 42.519531 L 67.894531 42.519531 Z M 99.71875 41.652344 L 102.925781 41.652344 C 103.769531 41.652344 104.429688 41.816406 104.902344 42.140625 C 105.378906 42.46875 105.617188 42.921875 105.617188 43.496094 C 105.617188 44.097656 105.378906 44.566406 104.902344 44.902344 C 104.429688 45.230469 103.769531 45.386719 102.925781 45.375 L 99.71875 45.375 Z M 99.71875 41.652344 " fill-opacity="1" fill-rule="nonzero"/><path fill="#b43278" d="M 11.84375 28.714844 C 7.183594 28.625 7.183594 35.714844 11.84375 35.625 L 14.652344 35.625 C 19.3125 35.714844 19.3125 28.625 14.652344 28.714844 Z M 26.632812 37.640625 C 21.996094 37.574219 21.996094 44.621094 26.632812 44.554688 L 29.445312 44.554688 C 34.082031 44.621094 34.082031 37.574219 29.445312 37.640625 Z M 11.828125 46.570312 C 7.191406 46.503906 7.191406 53.546875 11.828125 53.480469 L 14.636719 53.480469 C 19.273438 53.546875 19.273438 46.503906 14.636719 46.570312 Z M 11.828125 46.570312 " fill-opacity="1" fill-rule="nonzero"/><path fill="#f65a8e" d="M 22.980469 28.714844 C 18.320312 28.625 18.320312 35.714844 22.980469 35.625 L 29.425781 35.625 C 34.085938 35.714844 34.085938 28.625 29.425781 28.714844 Z M 11.828125 37.640625 C 7.191406 37.574219 7.191406 44.621094 11.828125 44.554688 L 18.273438 44.554688 C 22.910156 44.621094 22.910156 37.574219 18.273438 37.640625 Z M 22.996094 46.570312 C 18.359375 46.503906 18.359375 53.546875 22.996094 53.480469 L 29.445312 53.480469 C 34.082031 53.546875 34.082031 46.503906 29.445312 46.570312 Z M 22.996094 46.570312 " fill-opacity="1" fill-rule="nonzero"/></svg>